<?xml version="1.0" encoding="UTF-8" standalone="no"?>
<svg
   xmlns:dc="http://purl.org/dc/elements/1.1/"
   xmlns:cc="http://creativecommons.org/ns#"
   xmlns:rdf="http://www.w3.org/1999/02/22-rdf-syntax-ns#"
   xmlns:svg="http://www.w3.org/2000/svg"
   xmlns="http://www.w3.org/2000/svg"
   xmlns:sodipodi="http://sodipodi.sourceforge.net/DTD/sodipodi-0.dtd"
   xmlns:inkscape="http://www.inkscape.org/namespaces/inkscape"
   sodipodi:docname="France_road_sign_A3a.svg"
   inkscape:version="1.0beta1 (76ce730, 2019-10-19)"
   id="svg2"
   xml:space="preserve"
   enable-background="new -0.781 -0.08 576 506"
   viewBox="-0.781 -0.08 574.53649 505.94097"
   height="505.94098"
   width="574.5365"
   y="0px"
   x="0px"
   version="1.1"><metadata
   id="metadata18"><rdf:RDF><cc:Work
       rdf:about=""><dc:format>image/svg+xml</dc:format><dc:type
         rdf:resource="http://purl.org/dc/dcmitype/StillImage" /></cc:Work></rdf:RDF></metadata><sodipodi:namedview
   inkscape:document-rotation="0"
   inkscape:guide-bbox="true"
   showguides="true"
   inkscape:current-layer="svg2"
   inkscape:window-maximized="0"
   inkscape:window-y="23"
   inkscape:window-x="0"
   inkscape:cy="408.99424"
   inkscape:cx="397.57443"
   inkscape:zoom="0.7"
   fit-margin-bottom="0.3"
   fit-margin-right="0.3"
   fit-margin-left="0.3"
   fit-margin-top="0.3"
   showgrid="false"
   id="namedview16"
   inkscape:window-height="784"
   inkscape:window-width="1440"
   inkscape:pageshadow="2"
   inkscape:pageopacity="0"
   guidetolerance="10"
   gridtolerance="10"
   objecttolerance="10"
   borderopacity="1"
   bordercolor="#666666"
   pagecolor="#ffffff" />
<defs
   id="defs4" />





<path
   style="fill:#ffff00;fill-opacity:1;stroke:none;stroke-width:2;stroke-linecap:round;stroke-linejoin:round;stroke-miterlimit:4;stroke-dasharray:none;stroke-opacity:1"
   id="path6"
   d="M 3.66725,459.11499 259.67225,15.702 c 5.531,-9.5800001 15.753,-15.482 26.815,-15.482 11.063,0 21.284,5.9019999 26.815,15.482 l 256.00499,443.41299 c 5.531,9.58 5.531,21.384 0,30.964 -5.53,9.58 -15.753,15.482 -26.815,15.482 H 30.48225 c -11.062,0 -21.2839999,-5.902 -26.815,-15.482 -5.531,-9.58 -5.531,-21.384 0,-30.964 z"
   inkscape:connector-curvature="0" /><path
   style="fill:#f91a0e;stroke:none"
   id="path8"
   d="m 30.39225,493.17599 h 512.19099 c 6.618,0 12.734,-3.531 16.044,-9.264 3.31,-5.731 3.31,-12.794 0,-18.525 L 302.53125,21.817 c -3.31,-5.732 -9.425,-9.263 -16.044,-9.263 -6.619,0 -12.734,3.531 -16.043,9.263 l -256.096,443.56999 c -3.31,5.731 -3.31,12.794 0,18.525 3.309,5.733 9.425,9.264 16.044,9.264 z"
   inkscape:connector-curvature="0" /><polygon
   style="fill:#ffff00;fill-opacity:1;stroke:none"
   id="polygon10"
   points="287.058,68.208 510.884,455.888 63.23,455.888 "
   transform="translate(-0.56974992,0.132)" /><polygon
   style="fill:#000000;stroke:none"
   id="polygon12"
   points="359.706,438.435 385.447,438.387 385.447,353.749 343.652,280.92 343.652,198.876 306.253,198.876 306.253,286.663 349.378,352.503 349.378,438.454 "
   transform="translate(-0.56974992,0.132)" /><rect
   style="fill:#000000;stroke:none"
   id="rect14"
   height="239.938"
   width="37.396999"
   y="199.267"
   x="231.13126" /></svg>
