<?xml version="1.0" encoding="utf-8"?>
<!-- Generator: Adobe Illustrator 28.3.0, SVG Export Plug-In . SVG Version: 6.00 Build 0)  -->
<svg version="1.1"
	 id="Ebene_1" xmlns:sodipodi="http://sodipodi.sourceforge.net/DTD/sodipodi-0.dtd" xmlns:svg="http://www.w3.org/2000/svg" xmlns:inkscape="http://www.inkscape.org/namespaces/inkscape" inkscape:version="1.1.2 (b8e25be833, 2022-02-05)" sodipodi:docname="France_road_sign_C3.svg"
	 xmlns="http://www.w3.org/2000/svg" xmlns:xlink="http://www.w3.org/1999/xlink" x="0px" y="0px" viewBox="0 0 500 177.1"
	 style="enable-background:new 0 0 500 177.1;" xml:space="preserve">
<style type="text/css">
	.st0{fill:#FFFFFF;stroke:#000000;stroke-width:0.8499;}
	.st1{fill:#FF0000;}
	.st2{fill:#FFFFFF;}
</style>
<sodipodi:namedview  bordercolor="#666666" borderopacity="1.0" id="namedview54" inkscape:current-layer="Ebene_1" inkscape:cx="398.36612" inkscape:cy="42.258146" inkscape:pagecheckerboard="0" inkscape:pageopacity="0.0" inkscape:pageshadow="2" inkscape:window-height="706" inkscape:window-maximized="1" inkscape:window-width="1366" inkscape:window-x="-8" inkscape:window-y="-8" inkscape:zoom="1.0530514" pagecolor="#ffffff" showgrid="false">
	</sodipodi:namedview>
<path id="path1217" sodipodi:nodetypes="sssssssss" class="st0" d="M29,0.4C13.3,0.4,0.4,13.3,0.4,29v119.1
	c0,15.7,12.9,28.6,28.6,28.6h442c15.7,0,28.6-12.9,28.6-28.6V29c0-15.7-12.9-28.6-28.6-28.6L29,0.4z"/>
<path id="path1215" class="st1" d="M29,9.2h442c11,0,19.8,8.8,19.8,19.8v119.1c0,11-8.8,19.8-19.8,19.8H29c-11,0-19.8-8.8-19.8-19.8
	V29C9.2,18,18,9.2,29,9.2z"/>
<path id="rect2729" class="st2" d="M31,29.8h438v117.4H31V29.8z"/>
</svg>
