<?xml version="1.0" encoding="utf-8"?>
<!-- Generator: Adobe Illustrator 28.3.0, SVG Export Plug-In . SVG Version: 6.00 Build 0)  -->
<svg version="1.1"
	 id="Ebene_1" xmlns:svg="http://www.w3.org/2000/svg" xmlns:inkscape="http://www.inkscape.org/namespaces/inkscape" xmlns:sodipodi="http://sodipodi.sourceforge.net/DTD/sodipodi-0.dtd"
	 xmlns="http://www.w3.org/2000/svg" xmlns:xlink="http://www.w3.org/1999/xlink" x="0px" y="0px" viewBox="0 0 500 177.1"
	 style="enable-background:new 0 0 500 177.1;" xml:space="preserve">
<style type="text/css">
	.st0{fill:#FFFFFF;stroke:#000000;stroke-width:0.8499;}
	.st1{fill:#FF0000;}
</style>
<sodipodi:namedview  bordercolor="#666666" borderopacity="1.0" id="namedview54" inkscape:current-layer="Ebene_1" inkscape:cx="127.72406" inkscape:cy="16.618372" inkscape:pagecheckerboard="0" inkscape:pageopacity="0.0" inkscape:pageshadow="2" inkscape:window-height="706" inkscape:window-maximized="1" inkscape:window-width="1366" inkscape:window-x="-8" inkscape:window-y="-8" inkscape:zoom="1.0530514" pagecolor="#ffffff" showgrid="false">
	</sodipodi:namedview>
<path id="path1217" sodipodi:nodetypes="sssssssss" class="st0" d="M29,0.4C13.3,0.4,0.4,13.3,0.4,29v119.1
	c0,15.7,12.9,28.6,28.6,28.6h442c15.7,0,28.6-12.9,28.6-28.6V29c0-15.7-12.9-28.6-28.6-28.6L29,0.4z"/>
<path id="path1215" sodipodi:nodetypes="sssssssssccccccccc" d="M29,9.2C18,9.2,9.2,18,9.2,29v119.1c0,11,8.8,19.8,19.8,19.8h442
	c11,0,19.8-8.8,19.8-19.8V29c0-11-8.8-19.8-19.8-19.8H29z M30.1,23.8h440c3.4,0,6.2,2.8,6.2,6.2v117.2c0,3.4-2.8,6.2-6.2,6.2h-440
	c-3.4,0-6.2-2.8-6.2-6.2V30C23.9,26.6,26.7,23.8,30.1,23.8z"/>
<path id="rect1598" sodipodi:nodetypes="ccccccc" class="st1" d="M411,23.8L24.4,149.6c0.9,2.2,3.1,3.8,5.7,3.8h58.5l387.1-126
	c-1-2.1-3.1-3.6-5.6-3.6H411z"/>
</svg>
