<?xml version="1.0" encoding="UTF-8" standalone="no"?>
<!-- Created with Inkscape (http://www.inkscape.org/) -->

<svg
   xmlns:dc="http://purl.org/dc/elements/1.1/"
   xmlns:cc="http://creativecommons.org/ns#"
   xmlns:rdf="http://www.w3.org/1999/02/22-rdf-syntax-ns#"
   xmlns:svg="http://www.w3.org/2000/svg"
   xmlns="http://www.w3.org/2000/svg"
   xmlns:sodipodi="http://sodipodi.sourceforge.net/DTD/sodipodi-0.dtd"
   xmlns:inkscape="http://www.inkscape.org/namespaces/inkscape"
   width="75.153542"
   height="55.984249"
   id="svg3801"
   version="1.1"
   inkscape:version="0.48.4 r9939"
   sodipodi:docname="KC1 absence marquage.svg">
  <defs
     id="defs3" />
  <sodipodi:namedview
     inkscape:document-units="mm"
     id="base"
     pagecolor="#ffffff"
     bordercolor="#666666"
     borderopacity="1.0"
     inkscape:pageopacity="0.0"
     inkscape:pageshadow="2"
     inkscape:zoom="5.6"
     inkscape:cx="44.45526"
     inkscape:cy="20.785353"
     inkscape:current-layer="g3126"
     showgrid="false"
     inkscape:snap-page="true"
     inkscape:snap-bbox="true"
     inkscape:bbox-nodes="true"
     showguides="true"
     inkscape:guide-bbox="true"
     inkscape:object-paths="true"
     inkscape:snap-intersection-paths="true"
     inkscape:object-nodes="true"
     inkscape:snap-smooth-nodes="true"
     inkscape:snap-midpoints="true"
     inkscape:snap-object-midpoints="true"
     inkscape:snap-center="true"
     inkscape:bbox-paths="true"
     inkscape:snap-bbox-edge-midpoints="true"
     inkscape:snap-bbox-midpoints="true"
     units="mm"
     inkscape:window-width="1366"
     inkscape:window-height="745"
     inkscape:window-x="-8"
     inkscape:window-y="-8"
     inkscape:window-maximized="1">
    <sodipodi:guide
       orientation="1,0"
       position="37.564274,55.15832"
       id="guide4138" />
    <sodipodi:guide
       orientation="0,1"
       position="38.066112,21.509379"
       id="guide4140" />
    <sodipodi:guide
       orientation="0,1"
       position="40.571011,6.0868099"
       id="guide4345" />
    <sodipodi:guide
       orientation="0,1"
       position="38.429446,38.347479"
       id="guide3010" />
    <sodipodi:guide
       orientation="1,0"
       position="3.5433071,48.683261"
       id="guide3101" />
    <sodipodi:guide
       orientation="1,0"
       position="71.610236,35.982143"
       id="guide3103" />
  </sodipodi:namedview>
  <metadata
     id="metadata4">
    <rdf:RDF>
      <cc:Work
         rdf:about="">
        <dc:format>image/svg+xml</dc:format>
        <dc:type
           rdf:resource="http://purl.org/dc/dcmitype/StillImage" />
        <dc:title></dc:title>
      </cc:Work>
    </rdf:RDF>
  </metadata>
  <g
     inkscape:label="Layer 1"
     inkscape:groupmode="layer"
     id="layer1"
     transform="translate(0,-996.37793)">
    <g
       id="g3841">
      <g
         style="font-size:28.322649px;font-style:normal;font-weight:normal;text-align:center;line-height:125%;letter-spacing:0px;word-spacing:0px;text-anchor:middle;fill:#000000;fill-opacity:1;stroke:none;font-family:Sans"
         id="text3789">
        <g
           id="g3126">
          <g
             id="g3263">
            <path
               inkscape:connector-curvature="0"
               id="rect3019"
               d="m 2.6696808,997.20386 69.7891872,0 c 1.073006,0 1.936835,0.79018 1.936835,1.7717 l 0,50.88204 c 0,0.9815 -0.863829,1.7717 -1.936835,1.7717 l -69.7891872,0 c -1.0730066,0 -1.93683502,-0.7902 -1.93683502,-1.7717 l 0,-50.88204 c 0,-0.98152 0.86382842,-1.7717 1.93683502,-1.7717 z"
               style="fill:#ffff00;fill-opacity:1;fill-rule:nonzero;stroke:#000000;stroke-width:1.46569157;stroke-miterlimit:4;stroke-opacity:1" />
            <g
               transform="matrix(0.82436851,0,0,0.82436851,3.7011108,178.14979)"
               id="text3034"
               style="font-size:28.26119041px;font-style:normal;font-weight:normal;text-align:center;line-height:125%;letter-spacing:0px;word-spacing:0px;text-anchor:middle;fill:#000000;fill-opacity:1;stroke:none;font-family:Sans">
              <path
                 inkscape:connector-curvature="0"
                 id="path3140"
                 style="font-size:14.13059521px;font-variant:normal;font-stretch:normal;font-family:Caracteres L1;-inkscape-font-specification:Caracteres L1"
                 d="m 8.5869921,1003.8169 2.6080879,10.1081 -1.9802148,0 -0.4346814,-1.718 -2.7943804,0 -0.4415811,1.718 -2.0009143,0 2.5804895,-10.1081 z m -2.2217049,6.465 1.9940146,0 -0.9659586,-3.9466 z" />
              <path
                 inkscape:connector-curvature="0"
                 id="path3142"
                 style="font-size:14.13059521px;font-variant:normal;font-stretch:normal;font-family:Caracteres L1;-inkscape-font-specification:Caracteres L1"
                 d="m 15.555693,1003.8307 c 1.039551,0.1104 1.796218,0.5773 2.270003,1.4007 0.377177,0.7175 0.489872,1.4811 0.338086,2.2907 -0.1656,0.4829 -0.439288,0.8762 -0.821065,1.1798 0.726762,0.5336 1.117745,1.2903 1.17295,2.27 0.0092,0.074 0.01379,0.1472 0.0138,0.2208 -7e-6,0.2898 -0.0667,0.5934 -0.200091,0.9108 -0.413989,1.0671 -1.327049,1.6812 -2.739183,1.8422 l -3.670643,0 0,-10.115 z m -1.759424,3.9259 1.414439,0 c 0.726765,0 1.097048,-0.3449 1.110853,-1.0211 0.02299,-0.7038 -0.326591,-1.0626 -1.048755,-1.0764 l -1.476537,0 z m -0.0138,4.4366 1.718027,-0.01 c 0.496774,-0.1242 0.81186,-0.4255 0.945259,-0.9039 0.07359,-0.8326 -0.246094,-1.3201 -0.959059,-1.4627 l -1.704227,0 z" />
              <path
                 inkscape:connector-curvature="0"
                 id="path3144"
                 style="font-size:14.13059521px;font-variant:normal;font-stretch:normal;font-family:Caracteres L1;-inkscape-font-specification:Caracteres L1"
                 d="m 19.336731,1011.8827 0,-0.014 c 0,-0.051 0.0529,-0.085 0.158694,-0.1035 0.814163,-0.2622 1.34314,-0.4508 1.586932,-0.5658 0.124192,0.1702 0.287485,0.3243 0.489879,0.4623 0.326583,0.1932 0.676167,0.3105 1.048755,0.3519 0.395579,0.01 0.641668,0 0.738268,-0.028 0.455376,-0.1288 0.735964,-0.2599 0.841764,-0.3933 0.10579,-0.092 0.197786,-0.3151 0.275988,-0.6693 0.01839,-0.138 -5e-6,-0.2921 -0.0552,-0.4623 -0.069,-0.115 -0.1426,-0.2116 -0.220791,-0.2898 l -0.23459,-0.1794 -0.262189,-0.1172 c -1.45814,-0.4554 -2.260805,-0.7222 -2.407997,-0.8004 -0.676172,-0.2714 -1.17985,-0.7199 -1.511035,-1.3455 -0.216191,-0.4185 -0.312787,-0.9268 -0.289787,-1.5248 0.0874,-0.7451 0.393282,-1.3362 0.91766,-1.7732 0.588773,-0.4278 1.202846,-0.6601 1.842221,-0.6969 l 0.179393,0 c 0.455376,0 0.83256,0.034 1.131551,0.1035 0.607169,0.1702 1.080948,0.4071 1.421339,0.7107 0.34038,0.2806 0.620967,0.6624 0.841764,1.1453 l -0.0207,0.076 -1.421339,0.6831 -0.069,-0.034 c -0.0874,-0.2806 -0.333491,-0.5083 -0.738268,-0.6831 -0.455385,-0.1702 -0.988962,-0.1748 -1.600732,-0.014 -0.262191,0.087 -0.446183,0.2001 -0.551976,0.3381 -0.0368,0.037 -0.0851,0.1518 -0.144894,0.345 -0.0092,0.2254 -2e-6,0.3565 0.0276,0.3933 0.05979,0.1564 0.17939,0.2967 0.358785,0.4209 l 0.179392,0.076 c 1.30634,0.3864 2.191801,0.6669 2.656386,0.8417 0.400177,0.184 0.706064,0.3864 0.917661,0.6072 l 0.386383,0.5244 c 0.285181,0.4738 0.436974,0.9912 0.455381,1.5524 0.0046,0.037 0.0069,0.081 0.0069,0.1311 -8e-6,0.1794 -0.02761,0.4209 -0.0828,0.7245 -0.115002,0.4278 -0.252996,0.7428 -0.413982,0.9452 -0.275995,0.3404 -0.476086,0.5451 -0.600274,0.6141 -0.676177,0.4646 -1.373047,0.7153 -2.090611,0.7521 l -0.627873,0 c -0.469183,-0.046 -0.864766,-0.138 -1.186749,-0.276 -0.51518,-0.2392 -0.931462,-0.506 -1.248847,-0.8004 -0.262189,-0.2392 -0.489879,-0.5819 -0.683071,-1.028 z" />
              <path
                 inkscape:connector-curvature="0"
                 id="path3146"
                 style="font-size:14.13059521px;font-variant:normal;font-stretch:normal;font-family:Caracteres L1;-inkscape-font-specification:Caracteres L1"
                 d="m 33.136142,1003.8376 0,1.8491 -4.181221,0 0,2.2079 3.063469,0 0,1.8699 -3.063469,0 0,2.3114 4.360613,0 0,1.8698 -6.30633,0 0.0069,-10.1081 z" />
              <path
                 inkscape:connector-curvature="0"
                 id="path3148"
                 style="font-size:14.13059521px;font-variant:normal;font-stretch:normal;font-family:Caracteres L1;-inkscape-font-specification:Caracteres L1"
                 d="m 36.65499,1003.8169 2.539092,5.3956 0,-5.3956 1.876719,0 0.0069,10.1288 -1.842221,0 -3.084168,-6.3822 -0.0069,6.3891 -1.897418,0 0,-10.1357 z" />
              <path
                 inkscape:connector-curvature="0"
                 id="path3150"
                 style="font-size:14.13059521px;font-variant:normal;font-stretch:normal;font-family:Caracteres L1;-inkscape-font-specification:Caracteres L1"
                 d="m 46.197281,1003.7065 c 1.338537,0.23 2.214799,1.0281 2.628788,2.3942 l 0.0621,0.3381 -1.745625,0.3657 c -0.142599,-0.5888 -0.386389,-0.9798 -0.731369,-1.173 -0.34499,-0.1931 -0.749772,-0.1747 -1.214348,0.055 -0.30819,0.2622 -0.564629,0.621 -0.769317,1.0764 -0.204694,0.4554 -0.339238,1.0717 -0.403633,1.8491 -0.0276,0.828 0.08049,1.5467 0.324286,2.1562 0.243787,0.6094 0.539324,1.0131 0.886613,1.2109 0.347281,0.1978 0.702615,0.2254 1.066004,0.083 0.363379,-0.092 0.653167,-0.4669 0.869363,-1.1247 l 1.745625,0.5382 c -0.234597,0.9245 -0.687677,1.5938 -1.359242,2.0078 -0.492184,0.3128 -1.071759,0.4899 -1.738725,0.5313 -1.25575,-0.028 -2.194109,-0.5405 -2.81508,-1.5387 -0.653173,-1.0855 -0.988958,-2.2608 -1.007357,-3.5257 0.0092,-1.5823 0.349584,-2.8772 1.021156,-3.8845 0.423181,-0.5566 0.89696,-0.9407 1.42134,-1.1523 0.395579,-0.1564 0.825661,-0.2346 1.290244,-0.2346 0.15179,0 0.308183,0.01 0.46918,0.028 z" />
              <path
                 inkscape:connector-curvature="0"
                 id="path3152"
                 style="font-size:14.13059521px;font-variant:normal;font-stretch:normal;font-family:Caracteres L1;-inkscape-font-specification:Caracteres L1"
                 d="m 55.656776,1003.8376 0,1.8491 -4.181221,0 0,2.2079 3.063469,0 0,1.8699 -3.063469,0 0,2.3114 4.360613,0 0,1.8698 -6.30633,0 0.0069,-10.1081 z" />
            </g>
            <g
               transform="translate(-3.5355339,0.01110011)"
               id="text3034-1"
               style="font-size:22.65138054px;font-style:normal;font-weight:normal;text-align:center;line-height:125%;letter-spacing:0px;word-spacing:0px;text-anchor:middle;fill:#000000;fill-opacity:1;stroke:none;font-family:Sans">
              <path
                 inkscape:connector-curvature="0"
                 id="path3155"
                 style="font-size:11.32569027px;font-variant:normal;font-stretch:normal;font-family:Caracteres L1;-inkscape-font-specification:Caracteres L1"
                 d="m 63.613681,1005.8799 c 0.530887,0.063 0.981592,0.2747 1.352115,0.636 0.370512,0.3613 0.638723,0.7889 0.804632,1.283 0.07742,0.2175 0.134561,0.5032 0.171434,0.8571 l 0,2.4886 c -0.05531,0.8406 -0.319831,1.5189 -0.793572,2.0351 -0.473752,0.5161 -1.049806,0.7908 -1.728164,0.8239 l -3.20747,0 0.0055,-8.1237 z m -1.81388,6.5255 1.294048,0 c 0.261756,-0.04 0.484804,-0.1373 0.669145,-0.2903 0.184333,-0.153 0.34102,-0.4212 0.47006,-0.8046 0.07004,-0.236 0.09032,-1.095 0.06083,-2.5771 -0.173282,-0.7668 -0.573293,-1.2074 -1.200037,-1.3217 l -1.294048,0 z" />
              <path
                 inkscape:connector-curvature="0"
                 id="path3157"
                 style="font-size:11.32569027px;font-variant:normal;font-stretch:normal;font-family:Caracteres L1;-inkscape-font-specification:Caracteres L1"
                 d="m 71.466454,1005.9131 0,1.4821 -3.351254,0 0,1.7696 2.455375,0 0,1.4987 -2.455375,0 0,1.8525 3.495037,0 0,1.4987 -5.054531,0 0.0055,-8.1016 z" />
            </g>
            <g
               transform="translate(-0.06286614,0.11476301)"
               id="text3034-4"
               style="font-size:29.85535812px;font-style:normal;font-weight:normal;text-align:center;line-height:125%;letter-spacing:0px;word-spacing:0px;text-anchor:middle;fill:#000000;fill-opacity:1;stroke:none;font-family:Sans">
              <g
                 id="text3188"
                 style="font-size:22.39092064px;fill:#000000;font-family:Sans">
                <path
                   id="path3214"
                   style="font-size:11.19546032px;font-variant:normal;font-stretch:normal;font-family:Caracteres L1;-inkscape-font-specification:Caracteres L1"
                   d="m 3.5433046,1029.1035 0,-0.011 c -3e-7,-0.04 0.04191,-0.067 0.1257302,-0.082 0.6450499,-0.2077 1.0641504,-0.3571 1.2573027,-0.4482 0.098396,0.1348 0.2277703,0.2569 0.3881239,0.3662 0.2587469,0.1531 0.5357176,0.246 0.830913,0.2788 0.3134114,0.01 0.5083842,0 0.5849191,-0.022 0.3607874,-0.102 0.5830928,-0.2059 0.6669171,-0.3116 0.083816,-0.073 0.156703,-0.2496 0.2186613,-0.5302 0.014573,-0.1093 -4.4e-6,-0.2314 -0.043732,-0.3663 -0.05467,-0.091 -0.1129792,-0.1676 -0.174929,-0.2296 l -0.1858622,-0.1421 -0.2077282,-0.093 c -1.1552633,-0.3608 -1.7912028,-0.5722 -1.9078202,-0.6341 -0.5357216,-0.215 -0.9347781,-0.5704 -1.1971708,-1.066 -0.1712852,-0.3316 -0.2478166,-0.7343 -0.2295944,-1.2081 0.069242,-0.5904 0.3115917,-1.0587 0.727049,-1.4049 0.4664759,-0.3389 0.9529968,-0.523 1.4595644,-0.5521 l 0.1421298,0 c 0.3607881,0 0.659625,0.027 0.8965115,0.082 0.4810508,0.1348 0.8564191,0.3225 1.1261059,0.563 0.2696772,0.2223 0.4919827,0.5248 0.666917,0.9075 l -0.0164,0.06 -1.1261058,0.5412 -0.054665,-0.027 c -0.069247,-0.2223 -0.2642197,-0.4026 -0.584919,-0.5411 -0.3607945,-0.1349 -0.7835393,-0.1385 -1.2682358,-0.011 -0.2077304,0.069 -0.3535045,0.1586 -0.4373226,0.2679 -0.029157,0.029 -0.067423,0.1203 -0.1147972,0.2733 -0.00729,0.1786 -1.9e-6,0.2825 0.021866,0.3116 0.047375,0.1239 0.1421279,0.2351 0.2842597,0.3335 l 0.1421299,0.06 c 1.0349937,0.3061 1.7365314,0.5284 2.1046153,0.6669 0.3170543,0.1458 0.5594037,0.3061 0.727049,0.4811 l 0.3061258,0.4154 c 0.2259444,0.3754 0.3462081,0.7854 0.3607912,1.23 0.00364,0.029 0.00546,0.064 0.00547,0.1039 -5.8e-6,0.1421 -0.021872,0.3334 -0.065598,0.5739 -0.091115,0.339 -0.2004451,0.5886 -0.327992,0.749 -0.2186665,0.2696 -0.3771958,0.4318 -0.4755884,0.4865 -0.5357247,0.3681 -1.087844,0.5667 -1.6563596,0.5958 l -0.4974546,0 c -0.3717266,-0.036 -0.6851409,-0.1093 -0.9402437,-0.2186 -0.4081692,-0.1895 -0.7379831,-0.4009 -0.9894425,-0.6341 -0.2077289,-0.1895 -0.3881244,-0.4611 -0.5411868,-0.8146 z" />
                <path
                   id="path3216"
                   style="font-size:11.19546032px;font-variant:normal;font-stretch:normal;font-family:Caracteres L1;-inkscape-font-specification:Caracteres L1"
                   d="m 11.338581,1022.7241 0,8.0139 -1.5196962,0 0,-8.0139 z" />
                <path
                   id="path3218"
                   style="font-size:11.19546032px;font-variant:normal;font-stretch:normal;font-family:Caracteres L1;-inkscape-font-specification:Caracteres L1"
                   d="m 15.372883,1022.6148 c 1.045925,0.1093 1.789373,0.8036 2.230345,2.0827 l -1.421298,0.3717 c -0.255109,-0.5612 -0.546657,-0.8983 -0.874646,-1.0113 -0.426392,-0.1603 -0.838204,0.064 -1.235436,0.6724 -0.247818,0.4082 -0.400881,1.004 -0.459189,1.7876 -0.01093,0.8637 0.124817,1.5534 0.407257,2.0691 0.282435,0.5156 0.614982,0.8008 0.997642,0.8555 0.612248,-0.029 1.067792,-0.5758 1.366633,-1.64 l -1.295568,0 0,-1.4596 2.85353,0 0,0.066 c 0.0036,0.088 0.0055,0.1768 0.0055,0.2679 -6e-6,1.3156 -0.30431,2.3871 -0.912911,3.2143 -0.408173,0.5613 -1.005846,0.8747 -1.793023,0.9403 l -0.120264,0 c -1.749292,0 -2.736911,-1.261 -2.962861,-3.7829 -0.0036,-0.073 -0.0055,-0.1476 -0.0055,-0.2241 -1e-6,-1.2792 0.289725,-2.3506 0.869178,-3.2143 0.342568,-0.4373 0.71247,-0.7198 1.109707,-0.8473 0.313412,-0.1021 0.641403,-0.1531 0.983976,-0.1531 0.08382,0 0.169459,0 0.256927,0.01 z" />
                <path
                   id="path3220"
                   style="font-size:11.19546032px;font-variant:normal;font-stretch:normal;font-family:Caracteres L1;-inkscape-font-specification:Caracteres L1"
                   d="m 20.522357,1022.7132 2.011684,4.2748 0,-4.2748 1.486897,0 0.0055,8.0248 -1.459565,0 -2.44354,-5.0565 -0.0055,5.062 -1.503296,0 0,-8.0303 z" />
                <path
                   id="path3222"
                   style="font-size:11.19546032px;font-variant:normal;font-stretch:normal;font-family:Caracteres L1;-inkscape-font-specification:Caracteres L1"
                   d="m 28.634693,1022.7132 2.06635,8.0084 -1.568895,0 -0.344392,-1.3611 -2.213946,0 -0.349858,1.3611 -1.585295,0 2.044484,-8.0084 z m -1.760223,5.1221 1.579828,0 -0.765315,-3.1268 z" />
                <path
                   id="path3224"
                   style="font-size:11.19546032px;font-variant:normal;font-stretch:normal;font-family:Caracteres L1;-inkscape-font-specification:Caracteres L1"
                   d="m 32.822059,1022.7132 0.0055,6.5926 3.099524,0 -0.0055,1.4322 -4.613754,0 0,-8.0248 z" />
                <path
                   id="path3226"
                   style="font-size:11.19546032px;font-variant:normal;font-stretch:normal;font-family:Caracteres L1;-inkscape-font-specification:Caracteres L1"
                   d="m 38.233925,1022.7241 0,8.0139 -1.519696,0 0,-8.0139 z" />
                <path
                   id="path3228"
                   style="font-size:11.19546032px;font-variant:normal;font-stretch:normal;font-family:Caracteres L1;-inkscape-font-specification:Caracteres L1"
                   d="m 39.03204,1029.1035 0,-0.011 c -1e-6,-0.04 0.04191,-0.067 0.12573,-0.082 0.64505,-0.2077 1.06415,-0.3571 1.257303,-0.4482 0.0984,0.1348 0.22777,0.2569 0.388124,0.3662 0.258746,0.1531 0.535717,0.246 0.830913,0.2788 0.313411,0.01 0.508384,0 0.584919,-0.022 0.360787,-0.102 0.583093,-0.2059 0.666917,-0.3116 0.08382,-0.073 0.156703,-0.2496 0.218661,-0.5302 0.01457,-0.1093 -4e-6,-0.2314 -0.04373,-0.3663 -0.05467,-0.091 -0.112979,-0.1676 -0.174929,-0.2296 l -0.185862,-0.1421 -0.207729,-0.093 c -1.155263,-0.3608 -1.791202,-0.5722 -1.90782,-0.6341 -0.535721,-0.215 -0.934778,-0.5704 -1.197171,-1.066 -0.171285,-0.3316 -0.247816,-0.7343 -0.229594,-1.2081 0.06924,-0.5904 0.311592,-1.0587 0.727049,-1.4049 0.466476,-0.3389 0.952997,-0.523 1.459564,-0.5521 l 0.14213,0 c 0.360788,0 0.659625,0.027 0.896512,0.082 0.481051,0.1348 0.856419,0.3225 1.126106,0.563 0.269677,0.2223 0.491982,0.5248 0.666917,0.9075 l -0.0164,0.06 -1.126106,0.5412 -0.05466,-0.027 c -0.06925,-0.2223 -0.26422,-0.4026 -0.584919,-0.5411 -0.360795,-0.1349 -0.78354,-0.1385 -1.268236,-0.011 -0.20773,0.069 -0.353504,0.1586 -0.437323,0.2679 -0.02916,0.029 -0.06742,0.1203 -0.114797,0.2733 -0.0073,0.1786 -2e-6,0.2825 0.02187,0.3116 0.04738,0.1239 0.142128,0.2351 0.28426,0.3335 l 0.14213,0.06 c 1.034994,0.3061 1.736531,0.5284 2.104615,0.6669 0.317054,0.1458 0.559404,0.3061 0.727049,0.4811 l 0.306126,0.4154 c 0.225944,0.3754 0.346208,0.7854 0.360791,1.23 0.0036,0.029 0.0055,0.064 0.0055,0.1039 -6e-6,0.1421 -0.02187,0.3334 -0.0656,0.5739 -0.09111,0.339 -0.200445,0.5886 -0.327992,0.749 -0.218666,0.2696 -0.377195,0.4318 -0.475588,0.4865 -0.535725,0.3681 -1.087844,0.5667 -1.65636,0.5958 l -0.497454,0 c -0.371727,-0.036 -0.685141,-0.1093 -0.940244,-0.2186 -0.408169,-0.1895 -0.737983,-0.4009 -0.989442,-0.6341 -0.207729,-0.1895 -0.388125,-0.4611 -0.541187,-0.8146 z" />
                <path
                   id="path3230"
                   style="font-size:11.19546032px;font-variant:normal;font-stretch:normal;font-family:Caracteres L1;-inkscape-font-specification:Caracteres L1"
                   d="m 48.970198,1022.7132 2.066349,8.0084 -1.568895,0 -0.344391,-1.3611 -2.213946,0 -0.349858,1.3611 -1.585295,0 2.044483,-8.0084 z m -1.760224,5.1221 1.579828,0 -0.765314,-3.1268 z" />
                <path
                   id="path3232"
                   style="font-size:11.19546032px;font-variant:normal;font-stretch:normal;font-family:Caracteres L1;-inkscape-font-specification:Caracteres L1"
                   d="m 56.410148,1022.7186 0,1.5416 -1.601694,0 0,6.4778 -1.486897,0 0,-6.4942 -1.711025,0 0,-1.5252 z" />
                <path
                   id="path3234"
                   style="font-size:11.19546032px;font-variant:normal;font-stretch:normal;font-family:Caracteres L1;-inkscape-font-specification:Caracteres L1"
                   d="m 58.744359,1022.7241 0,8.0139 -1.519697,0 0,-8.0139 z" />
                <path
                   id="path3236"
                   style="font-size:11.19546032px;font-variant:normal;font-stretch:normal;font-family:Caracteres L1;-inkscape-font-specification:Caracteres L1"
                   d="m 62.898924,1022.6257 c 0.88193,0.1349 1.534269,0.656 1.957019,1.5634 0.360786,0.6706 0.541181,1.4942 0.541187,2.4709 l 0,0.098 c -6e-6,1.2209 -0.297021,2.2595 -0.891045,3.1159 -0.42275,0.5758 -1.020424,0.8984 -1.793023,0.9676 -0.08018,0.01 -0.158532,0.011 -0.235061,0.011 -0.80176,0 -1.474143,-0.3389 -2.01715,-1.0167 -0.561232,-0.9038 -0.845491,-1.8313 -0.85278,-2.7825 -0.0036,-0.08 -0.0055,-0.1604 -0.0055,-0.2405 -10e-7,-1.2865 0.286081,-2.3506 0.858246,-3.1925 0.382655,-0.4592 0.781712,-0.7525 1.19717,-0.8801 0.287902,-0.091 0.575806,-0.1367 0.863713,-0.1367 0.127549,0 0.253279,0.01 0.37719,0.022 z m -0.420923,6.8277 c 0.422742,-0.022 0.779888,-0.3116 1.071441,-0.8692 0.211368,-0.3717 0.344387,-0.9184 0.399057,-1.6399 0.01093,-0.9184 -0.151245,-1.671 -0.486522,-2.2577 -0.27333,-0.4082 -0.575811,-0.6359 -0.907444,-0.6833 -0.437326,0.022 -0.801761,0.3079 -1.093307,0.8582 -0.20773,0.3863 -0.342571,0.9403 -0.404523,1.6618 -0.0073,0.9184 0.158527,1.6692 0.497454,2.2523 0.26968,0.4081 0.577628,0.6341 0.923844,0.6778 z" />
                <path
                   id="path3238"
                   style="font-size:11.19546032px;font-variant:normal;font-stretch:normal;font-family:Caracteres L1;-inkscape-font-specification:Caracteres L1"
                   d="m 68.081197,1022.7132 2.011684,4.2748 0,-4.2748 1.486897,0 0.0055,8.0248 -1.459564,0 -2.44354,-5.0565 -0.0055,5.062 -1.503297,0 0,-8.0303 z" />
              </g>
              <g
                 id="text3188-2"
                 style="font-size:22.39092064px;line-height:125%;fill:#000000;font-family:Sans">
                <path
                   id="path3241"
                   style="font-size:11.19546032px;font-variant:normal;font-stretch:normal;font-family:Caracteres L1;-inkscape-font-specification:Caracteres L1"
                   d="m 8.181658,1038.1466 0,3.2088 2.203013,0 0,-3.2033 1.536096,0 0,8.0084 -1.536096,0 0,-3.3127 -2.203013,0 0,3.3127 -1.5360959,0 0,-8.0139 z" />
                <path
                   id="path3243"
                   style="font-size:11.19546032px;font-variant:normal;font-stretch:normal;font-family:Caracteres L1;-inkscape-font-specification:Caracteres L1"
                   d="m 15.894936,1038.0482 c 0.88193,0.1348 1.534269,0.656 1.957019,1.5634 0.360786,0.6706 0.541181,1.4942 0.541187,2.4709 l 0,0.098 c -6e-6,1.2208 -0.297021,2.2595 -0.891045,3.1159 -0.42275,0.5758 -1.020424,0.8983 -1.793023,0.9676 -0.08018,0.01 -0.158532,0.011 -0.235061,0.011 -0.80176,0 -1.474143,-0.3389 -2.01715,-1.0168 -0.561232,-0.9038 -0.845491,-1.8312 -0.85278,-2.7824 -0.0036,-0.08 -0.0055,-0.1604 -0.0055,-0.2405 0,-1.2865 0.286081,-2.3507 0.858246,-3.1925 0.382655,-0.4592 0.781712,-0.7526 1.19717,-0.8801 0.287902,-0.091 0.575806,-0.1367 0.863713,-0.1367 0.127549,0 0.253279,0.01 0.37719,0.022 z m -0.420923,6.8277 c 0.422742,-0.022 0.779889,-0.3116 1.071441,-0.8692 0.211368,-0.3717 0.344387,-0.9184 0.399057,-1.64 0.01093,-0.9183 -0.151245,-1.6709 -0.486522,-2.2576 -0.27333,-0.4082 -0.575811,-0.636 -0.907444,-0.6833 -0.437326,0.022 -0.801761,0.3079 -1.093307,0.8582 -0.20773,0.3863 -0.342571,0.9402 -0.404523,1.6618 -0.0073,0.9184 0.158527,1.6691 0.497454,2.2522 0.26968,0.4082 0.577628,0.6342 0.923844,0.6779 z" />
                <path
                   id="path3245"
                   style="font-size:11.19546032px;font-variant:normal;font-stretch:normal;font-family:Caracteres L1;-inkscape-font-specification:Caracteres L1"
                   d="m 21.738661,1038.1193 c 0.841842,0 1.499647,0.3024 1.973418,0.9074 0.415451,0.5321 0.623179,1.1316 0.623185,1.7985 -6e-6,0.1203 -0.0073,0.2624 -0.02187,0.4264 -0.08747,0.8127 -0.493816,1.4851 -1.219037,2.0171 l 1.333834,2.8864 -1.727425,0 -1.142505,-2.3889 -0.989443,0 0,2.4053 -1.514229,0 0.0055,-8.0522 z m -0.218662,4.1053 0.448256,-0.055 c 0.255101,-0.069 0.468296,-0.2132 0.639584,-0.4319 0.145771,-0.215 0.233235,-0.4719 0.262394,-0.7708 0.01457,-0.3717 -0.09476,-0.6961 -0.327992,-0.973 -0.196799,-0.226 -0.482881,-0.3535 -0.858246,-0.3827 l -1.098773,0 0,2.613 z" />
                <path
                   id="path3247"
                   style="font-size:11.19546032px;font-variant:normal;font-stretch:normal;font-family:Caracteres L1;-inkscape-font-specification:Caracteres L1"
                   d="m 26.631208,1038.1466 0,8.0139 -1.519697,0 0,-8.0139 z" />
                <path
                   id="path3249"
                   style="font-size:11.19546032px;font-variant:normal;font-stretch:normal;font-family:Caracteres L1;-inkscape-font-specification:Caracteres L1"
                   d="m 32.770125,1038.1575 -0.0055,1.547 -3.443916,4.9527 3.542313,0 0,1.5033 -5.417334,0 0,-1.6071 3.361918,-4.8489 -3.192456,0 0,-1.547 z" />
                <path
                   id="path3251"
                   style="font-size:11.19546032px;font-variant:normal;font-stretch:normal;font-family:Caracteres L1;-inkscape-font-specification:Caracteres L1"
                   d="m 36.842693,1038.0482 c 0.881929,0.1348 1.534268,0.656 1.957019,1.5634 0.360785,0.6706 0.54118,1.4942 0.541187,2.4709 l 0,0.098 c -7e-6,1.2208 -0.297021,2.2595 -0.891045,3.1159 -0.42275,0.5758 -1.020424,0.8983 -1.793023,0.9676 -0.08018,0.01 -0.158533,0.011 -0.235061,0.011 -0.801761,0 -1.474144,-0.3389 -2.017151,-1.0168 -0.561232,-0.9038 -0.845491,-1.8312 -0.852779,-2.7824 -0.0036,-0.08 -0.0055,-0.1604 -0.0055,-0.2405 0,-1.2865 0.286081,-2.3507 0.858246,-3.1925 0.382656,-0.4592 0.781712,-0.7526 1.197171,-0.8801 0.287901,-0.091 0.575805,-0.1367 0.863712,-0.1367 0.127549,0 0.253279,0.01 0.377191,0.022 z m -0.420923,6.8277 c 0.422741,-0.022 0.779888,-0.3116 1.07144,-0.8692 0.211368,-0.3717 0.344387,-0.9184 0.399057,-1.64 0.01093,-0.9183 -0.151245,-1.6709 -0.486521,-2.2576 -0.273331,-0.4082 -0.575812,-0.636 -0.907445,-0.6833 -0.437325,0.022 -0.801761,0.3079 -1.093306,0.8582 -0.207731,0.3863 -0.342572,0.9402 -0.404524,1.6618 -0.0073,0.9184 0.158528,1.6691 0.497455,2.2522 0.269679,0.4082 0.577627,0.6342 0.923844,0.6779 z" />
                <path
                   id="path3253"
                   style="font-size:11.19546032px;font-variant:normal;font-stretch:normal;font-family:Caracteres L1;-inkscape-font-specification:Caracteres L1"
                   d="m 42.024967,1038.1357 2.011684,4.2748 0,-4.2748 1.486897,0 0.0055,8.0248 -1.459565,0 -2.44354,-5.0565 -0.0055,5.062 -1.503296,0 0,-8.0303 z" />
                <path
                   id="path3255"
                   style="font-size:11.19546032px;font-variant:normal;font-stretch:normal;font-family:Caracteres L1;-inkscape-font-specification:Caracteres L1"
                   d="m 51.126746,1038.1411 0,1.5416 -1.601694,0 0,6.4778 -1.486897,0 0,-6.4942 -1.711025,0 0,-1.5252 z" />
                <path
                   id="path3257"
                   style="font-size:11.19546032px;font-variant:normal;font-stretch:normal;font-family:Caracteres L1;-inkscape-font-specification:Caracteres L1"
                   d="m 55.603833,1038.1357 2.06635,8.0084 -1.568895,0 -0.344392,-1.3611 -2.213946,0 -0.349858,1.3611 -1.585295,0 2.044484,-8.0084 z m -1.760224,5.1221 1.579829,0 -0.765315,-3.1269 z" />
                <path
                   id="path3259"
                   style="font-size:11.19546032px;font-variant:normal;font-stretch:normal;font-family:Caracteres L1;-inkscape-font-specification:Caracteres L1"
                   d="m 59.7912,1038.1357 0.0055,6.5926 3.099524,0 -0.0055,1.4322 -4.613754,0 0,-8.0248 z" />
                <path
                   id="path3261"
                   style="font-size:11.19546032px;font-variant:normal;font-stretch:normal;font-family:Caracteres L1;-inkscape-font-specification:Caracteres L1"
                   d="m 68.340857,1038.1521 0,1.465 -3.312719,0 0,1.7493 2.427141,0 0,1.4814 -2.427141,0 0,1.8313 3.454849,0 0,1.4814 -4.996411,0 0.0055,-8.0084 z" />
              </g>
            </g>
          </g>
        </g>
      </g>
    </g>
  </g>
</svg>
