<?xml version="1.0" encoding="UTF-8" standalone="no"?>
<svg
   version="1.2"
   width="80.059998mm"
   height="60.07mm"
   viewBox="0 0 8006 6007"
   preserveAspectRatio="xMidYMid"
   fill-rule="evenodd"
   stroke-width="28.222"
   stroke-linejoin="round"
   xml:space="preserve"
   id="svg61"
   sodipodi:docname="KC1_ex3.svg"
   xmlns:inkscape="http://www.inkscape.org/namespaces/inkscape"
   xmlns:sodipodi="http://sodipodi.sourceforge.net/DTD/sodipodi-0.dtd"
   xmlns="http://www.w3.org/2000/svg"
   xmlns:svg="http://www.w3.org/2000/svg"
   xmlns:ooo="http://xml.openoffice.org/svg/export"><sodipodi:namedview
   id="namedview61"
   pagecolor="#ffffff"
   bordercolor="#000000"
   borderopacity="0.25"
   inkscape:showpageshadow="2"
   inkscape:pageopacity="0.0"
   inkscape:pagecheckerboard="0"
   inkscape:deskcolor="#d1d1d1"
   inkscape:document-units="mm"
   fit-margin-top="50"
   fit-margin-left="50"
   fit-margin-right="50"
   fit-margin-bottom="50" />&#10; <defs
   class="ClipPathGroup"
   id="defs2">&#10;  <clipPath
   id="presentation_clip_path"
   clipPathUnits="userSpaceOnUse">&#10;   <rect
   x="0"
   y="0"
   width="21001"
   height="29703"
   id="rect1" />&#10;  </clipPath>&#10;  <clipPath
   id="presentation_clip_path_shrink"
   clipPathUnits="userSpaceOnUse">&#10;   <rect
   x="21"
   y="29"
   width="20959"
   height="29644"
   id="rect2" />&#10;  </clipPath>&#10; </defs>&#10; <defs
   class="TextShapeIndex"
   id="defs3">&#10;  <g
   ooo:slide="id1"
   ooo:id-list="id3 id4 id5 id6 id7 id8 id9 id10 id11 id12 id13 id14 id15 id16 id17 id18 id19 id20 id21 id22 id23"
   id="g2" />&#10; </defs>&#10; <defs
   class="EmbeddedBulletChars"
   id="defs12">&#10;  <g
   id="bullet-char-template-57356"
   transform="matrix(4.8828125e-4,0,0,-4.8828125e-4,0,0)">&#10;   <path
   d="M 580,1141 1163,571 580,0 -4,571 Z"
   id="path3" />&#10;  </g>&#10;  <g
   id="bullet-char-template-57354"
   transform="matrix(4.8828125e-4,0,0,-4.8828125e-4,0,0)">&#10;   <path
   d="M 8,1128 H 1137 V 0 H 8 Z"
   id="path4" />&#10;  </g>&#10;  <g
   id="bullet-char-template-10146"
   transform="matrix(4.8828125e-4,0,0,-4.8828125e-4,0,0)">&#10;   <path
   d="M 174,0 602,739 174,1481 1456,739 Z M 1358,739 309,1346 659,739 Z"
   id="path5" />&#10;  </g>&#10;  <g
   id="bullet-char-template-10132"
   transform="matrix(4.8828125e-4,0,0,-4.8828125e-4,0,0)">&#10;   <path
   d="M 2015,739 1276,0 H 717 l 543,543 H 174 v 393 h 1086 l -543,545 h 557 z"
   id="path6" />&#10;  </g>&#10;  <g
   id="bullet-char-template-10007"
   transform="matrix(4.8828125e-4,0,0,-4.8828125e-4,0,0)">&#10;   <path
   d="m 0,-2 c -7,16 -16,29 -25,39 l 381,530 c -94,256 -141,385 -141,387 0,25 13,38 40,38 9,0 21,-2 34,-5 21,4 42,12 65,25 l 27,-13 111,-251 280,301 64,-25 24,25 c 21,-10 41,-24 62,-43 C 886,937 835,863 770,784 769,783 710,716 594,584 L 774,223 c 0,-27 -21,-55 -63,-84 l 16,-20 C 717,90 699,76 672,76 641,76 570,178 457,381 L 164,-76 c -22,-34 -53,-51 -92,-51 -42,0 -63,17 -64,51 -7,9 -10,24 -10,44 0,9 1,19 2,30 z"
   id="path7" />&#10;  </g>&#10;  <g
   id="bullet-char-template-10004"
   transform="matrix(4.8828125e-4,0,0,-4.8828125e-4,0,0)">&#10;   <path
   d="M 285,-33 C 182,-33 111,30 74,156 52,228 41,333 41,471 c 0,78 14,145 41,201 34,71 87,106 158,106 53,0 88,-31 106,-94 l 23,-176 c 8,-64 28,-97 59,-98 l 735,706 c 11,11 33,17 66,17 42,0 63,-15 63,-46 V 965 c 0,-36 -10,-64 -30,-84 L 442,47 C 390,-6 338,-33 285,-33 Z"
   id="path8" />&#10;  </g>&#10;  <g
   id="bullet-char-template-9679"
   transform="matrix(4.8828125e-4,0,0,-4.8828125e-4,0,0)">&#10;   <path
   d="M 813,0 C 632,0 489,54 383,161 276,268 223,411 223,592 c 0,181 53,324 160,431 106,107 249,161 430,161 179,0 323,-54 432,-161 108,-107 162,-251 162,-431 0,-180 -54,-324 -162,-431 C 1136,54 992,0 813,0 Z"
   id="path9" />&#10;  </g>&#10;  <g
   id="bullet-char-template-8226"
   transform="matrix(4.8828125e-4,0,0,-4.8828125e-4,0,0)">&#10;   <path
   d="m 346,457 c -73,0 -137,26 -191,78 -54,51 -81,114 -81,188 0,73 27,136 81,188 54,52 118,78 191,78 73,0 134,-26 185,-79 51,-51 77,-114 77,-187 0,-75 -25,-137 -76,-188 -50,-52 -112,-78 -186,-78 z"
   id="path10" />&#10;  </g>&#10;  <g
   id="bullet-char-template-8211"
   transform="matrix(4.8828125e-4,0,0,-4.8828125e-4,0,0)">&#10;   <path
   d="M -4,459 H 1135 V 606 H -4 Z"
   id="path11" />&#10;  </g>&#10;  <g
   id="bullet-char-template-61548"
   transform="matrix(4.8828125e-4,0,0,-4.8828125e-4,0,0)">&#10;   <path
   d="m 173,740 c 0,163 58,303 173,419 116,115 255,173 419,173 163,0 302,-58 418,-173 116,-116 174,-256 174,-419 0,-163 -58,-303 -174,-418 C 1067,206 928,148 765,148 601,148 462,206 346,322 231,437 173,577 173,740 Z"
   id="path12" />&#10;  </g>&#10; </defs>&#10; <g
   id="g12"
   transform="translate(-6013,-11009)">&#10;  <g
   id="id2"
   class="Master_Slide">&#10;   <g
   id="bg-id2"
   class="Background" />&#10;   <g
   id="bo-id2"
   class="BackgroundObjects" />&#10;  </g>&#10; </g>&#10; <g
   class="SlideGroup"
   id="g61"
   transform="translate(-6013,-11009)">&#10;  <g
   id="g60">&#10;   <g
   id="container-id1">&#10;    <g
   id="id1"
   class="Slide"
   clip-path="url(#presentation_clip_path)">&#10;     <g
   class="Page"
   id="g59">&#10;      <g
   class="Group"
   id="g58">&#10;       <g
   class="Group"
   id="g17">&#10;        <g
   class="com.sun.star.drawing.ClosedBezierShape"
   id="g14">&#10;         <g
   id="id3">&#10;          <rect
   class="BoundingBox"
   stroke="none"
   fill="none"
   x="6013"
   y="11009"
   width="8006"
   height="6007"
   id="rect12" />&#10;          <path
   fill="#1b1918"
   stroke="none"
   d="m 6015,11508 v 5007 c 0,332 166,498 497,498 h 7006 c 332,0 498,-166 498,-498 v -5007 c 0,-331 -166,-497 -498,-497 H 6512 c -331,0 -497,166 -497,497 z"
   id="path13" />&#10;          <path
   fill="none"
   stroke="#1b1918"
   stroke-width="3"
   stroke-linejoin="miter"
   d="m 6015,11508 v 5007 c 0,332 166,498 497,498 h 7006 c 332,0 498,-166 498,-498 v -5007 c 0,-331 -166,-497 -498,-497 H 6512 c -331,0 -497,166 -497,497 z"
   id="path14" />&#10;         </g>&#10;        </g>&#10;        <g
   class="com.sun.star.drawing.ClosedBezierShape"
   id="g16">&#10;         <g
   id="id4">&#10;          <rect
   class="BoundingBox"
   stroke="none"
   fill="none"
   x="6211"
   y="11207"
   width="7608"
   height="5607"
   id="rect14" />&#10;          <path
   fill="#ffec00"
   stroke="none"
   d="m 6213,11508 v 5003 c 0,200 100,300 299,300 h 7004 c 200,0 300,-100 300,-300 v -5003 c 0,-199 -100,-299 -300,-299 H 6512 c -199,0 -299,100 -299,299 z"
   id="path15" />&#10;          <path
   fill="none"
   stroke="#1b1918"
   stroke-width="3"
   stroke-linejoin="miter"
   d="m 6213,11508 v 5003 c 0,200 100,300 299,300 h 7004 c 200,0 300,-100 300,-300 v -5003 c 0,-199 -100,-299 -300,-299 H 6512 c -199,0 -299,100 -299,299 z"
   id="path16" />&#10;         </g>&#10;        </g>&#10;       </g>&#10;       <g
   class="Group"
   id="g42">&#10;        <g
   class="Group"
   id="g21">&#10;         <g
   class="com.sun.star.drawing.PolyPolygonShape"
   id="g18">&#10;          <g
   id="id5">&#10;           <rect
   class="BoundingBox"
   stroke="none"
   fill="none"
   x="11245"
   y="14611"
   width="631"
   height="1008"
   id="rect17" />&#10;           <path
   fill="#1b1918"
   stroke="none"
   d="m 11247,15616 v -1003 h 611 v 190 h -420 v 211 h 310 v 190 h -310 v 219 h 435 v 193 z"
   id="path17" />&#10;           <path
   fill="none"
   stroke="#1b1918"
   stroke-width="3"
   stroke-linejoin="miter"
   d="m 11247,15616 v -1003 h 611 v 190 h -420 v 211 h 310 v 190 h -310 v 219 h 435 v 193 z"
   id="path18" />&#10;          </g>&#10;         </g>&#10;         <g
   class="com.sun.star.drawing.PolyPolygonShape"
   id="g20">&#10;          <g
   id="id6">&#10;           <rect
   class="BoundingBox"
   stroke="none"
   fill="none"
   x="11394"
   y="14361"
   width="309"
   height="206"
   id="rect18" />&#10;           <path
   fill="#1b1918"
   stroke="none"
   d="m 11397,14564 77,-201 h 225 l -103,201 z"
   id="path19" />&#10;           <path
   fill="none"
   stroke="#1b1918"
   stroke-width="3"
   stroke-linejoin="miter"
   d="m 11397,14564 77,-201 h 225 l -103,201 z"
   id="path20" />&#10;          </g>&#10;         </g>&#10;        </g>&#10;        <g
   class="com.sun.star.drawing.PolyPolygonShape"
   id="g22">&#10;         <g
   id="id7">&#10;          <rect
   class="BoundingBox"
   stroke="none"
   fill="none"
   x="12245"
   y="14614"
   width="633"
   height="1006"
   id="rect21" />&#10;          <path
   fill="#1b1918"
   stroke="none"
   d="m 12247,15617 v -1001 h 613 v 190 h -422 v 210 h 312 v 191 h -312 v 219 h 437 v 191 z"
   id="path21" />&#10;          <path
   fill="none"
   stroke="#1b1918"
   stroke-width="3"
   stroke-linejoin="miter"
   d="m 12247,15617 v -1001 h 613 v 190 h -422 v 210 h 312 v 191 h -312 v 219 h 437 v 191 z"
   id="path22" />&#10;         </g>&#10;        </g>&#10;        <g
   class="Group"
   id="g27">&#10;         <g
   class="com.sun.star.drawing.PolyPolygonShape"
   id="g24">&#10;          <g
   id="id8">&#10;           <rect
   class="BoundingBox"
   stroke="none"
   fill="none"
   x="8060"
   y="14610"
   width="766"
   height="1008"
   id="rect22" />&#10;           <path
   fill="#1b1918"
   stroke="none"
   d="m 8062,15615 255,-1003 h 252 l 254,1003 h -199 l -41,-178 h -281 l -42,178 z"
   id="path23" />&#10;           <path
   fill="none"
   stroke="#1b1918"
   stroke-width="3"
   stroke-linejoin="miter"
   d="m 8062,15615 255,-1003 h 252 l 254,1003 h -199 l -41,-178 h -281 l -42,178 z"
   id="path24" />&#10;          </g>&#10;         </g>&#10;         <g
   class="com.sun.star.drawing.PolyPolygonShape"
   id="g26">&#10;          <g
   id="id9">&#10;           <rect
   class="BoundingBox"
   stroke="none"
   fill="none"
   x="8350"
   y="14857"
   width="191"
   height="396"
   id="rect24" />&#10;           <path
   fill="#ffec00"
   stroke="none"
   d="m 8352,15250 h 186 l -92,-386 z"
   id="path25" />&#10;           <path
   fill="none"
   stroke="#1b1918"
   stroke-width="3"
   stroke-linejoin="miter"
   d="m 8352,15250 h 186 l -92,-386 z"
   id="path26" />&#10;          </g>&#10;         </g>&#10;        </g>&#10;        <g
   class="Group"
   id="g31">&#10;         <g
   class="com.sun.star.drawing.PolyPolygonShape"
   id="g28">&#10;          <g
   id="id10">&#10;           <rect
   class="BoundingBox"
   stroke="none"
   fill="none"
   x="9121"
   y="14610"
   width="697"
   height="1008"
   id="rect27" />&#10;           <path
   fill="#1b1918"
   stroke="none"
   d="m 9123,15615 v -1003 h 330 l 72,7 69,23 64,36 55,48 44,59 29,65 17,70 v 72 l -14,71 -28,68 -40,59 -54,51 -17,13 164,361 h -214 l -143,-301 h -143 v 301 z"
   id="path27" />&#10;           <path
   fill="none"
   stroke="#1b1918"
   stroke-width="3"
   stroke-linejoin="miter"
   d="m 9123,15615 v -1003 h 330 l 72,7 69,23 64,36 55,48 44,59 29,65 17,70 v 72 l -14,71 -28,68 -40,59 -54,51 -17,13 164,361 h -214 l -143,-301 h -143 v 301 z"
   id="path28" />&#10;          </g>&#10;         </g>&#10;         <g
   class="com.sun.star.drawing.PolyPolygonShape"
   id="g30">&#10;          <g
   id="id11">&#10;           <rect
   class="BoundingBox"
   stroke="none"
   fill="none"
   x="9311"
   y="14802"
   width="307"
   height="324"
   id="rect28" />&#10;           <path
   fill="#ffec00"
   stroke="none"
   d="m 9313,15123 h 140 v 0 l 49,-8 43,-21 36,-34 25,-42 9,-50 -5,-46 -21,-46 -33,-38 -42,-23 -48,-11 h -13 -140 z"
   id="path29" />&#10;           <path
   fill="none"
   stroke="#1b1918"
   stroke-width="3"
   stroke-linejoin="miter"
   d="m 9313,15123 h 140 v 0 l 49,-8 43,-21 36,-34 25,-42 9,-50 -5,-46 -21,-46 -33,-38 -42,-23 -48,-11 h -13 -140 z"
   id="path30" />&#10;          </g>&#10;         </g>&#10;        </g>&#10;        <g
   class="Group"
   id="g35">&#10;         <g
   class="com.sun.star.drawing.PolyPolygonShape"
   id="g32">&#10;          <g
   id="id12">&#10;           <rect
   class="BoundingBox"
   stroke="none"
   fill="none"
   x="10184"
   y="14610"
   width="697"
   height="1008"
   id="rect31" />&#10;           <path
   fill="#1b1918"
   stroke="none"
   d="m 10186,15615 v -1003 h 330 l 72,7 69,23 64,36 55,48 44,59 29,65 17,70 v 72 l -14,71 -28,68 -40,59 -54,51 -17,13 164,361 h -214 l -143,-301 h -143 v 301 z"
   id="path31" />&#10;           <path
   fill="none"
   stroke="#1b1918"
   stroke-width="3"
   stroke-linejoin="miter"
   d="m 10186,15615 v -1003 h 330 l 72,7 69,23 64,36 55,48 44,59 29,65 17,70 v 72 l -14,71 -28,68 -40,59 -54,51 -17,13 164,361 h -214 l -143,-301 h -143 v 301 z"
   id="path32" />&#10;          </g>&#10;         </g>&#10;         <g
   class="com.sun.star.drawing.PolyPolygonShape"
   id="g34">&#10;          <g
   id="id13">&#10;           <rect
   class="BoundingBox"
   stroke="none"
   fill="none"
   x="10374"
   y="14802"
   width="307"
   height="324"
   id="rect32" />&#10;           <path
   fill="#ffec00"
   stroke="none"
   d="m 10376,15123 h 140 v 0 l 49,-8 43,-21 36,-34 25,-42 9,-50 -5,-46 -21,-46 -33,-38 -42,-23 -48,-11 h -13 -140 z"
   id="path33" />&#10;           <path
   fill="none"
   stroke="#1b1918"
   stroke-width="3"
   stroke-linejoin="miter"
   d="m 10376,15123 h 140 v 0 l 49,-8 43,-21 36,-34 25,-42 9,-50 -5,-46 -21,-46 -33,-38 -42,-23 -48,-11 h -13 -140 z"
   id="path34" />&#10;          </g>&#10;         </g>&#10;        </g>&#10;        <g
   class="Group"
   id="g41">&#10;         <g
   class="com.sun.star.drawing.PolyPolygonShape"
   id="g36">&#10;          <g
   id="id14">&#10;           <rect
   class="BoundingBox"
   stroke="none"
   fill="none"
   x="7153"
   y="14610"
   width="654"
   height="1008"
   id="rect35" />&#10;           <path
   fill="#1b1918"
   stroke="none"
   d="m 7155,15615 v -1003 h 340 l 62,7 63,23 55,36 43,46 35,57 19,61 2,65 -10,63 -25,61 -38,51 -11,11 v -3 l 48,48 36,56 23,60 7,65 -6,67 -20,61 -35,57 -47,48 -55,32 -63,23 -62,8 z"
   id="path35" />&#10;           <path
   fill="none"
   stroke="#1b1918"
   stroke-width="3"
   stroke-linejoin="miter"
   d="m 7155,15615 v -1003 h 340 l 62,7 63,23 55,36 43,46 35,57 19,61 2,65 -10,63 -25,61 -38,51 -11,11 v -3 l 48,48 36,56 23,60 7,65 -6,67 -20,61 -35,57 -47,48 -55,32 -63,23 -62,8 z"
   id="path36" />&#10;          </g>&#10;         </g>&#10;         <g
   class="com.sun.star.drawing.PolyPolygonShape"
   id="g38">&#10;          <g
   id="id15">&#10;           <rect
   class="BoundingBox"
   stroke="none"
   fill="none"
   x="7331"
   y="15211"
   width="274"
   height="229"
   id="rect36" />&#10;           <path
   fill="#ffec00"
   stroke="none"
   d="m 7333,15213 v 224 h 161 l 40,-7 32,-23 25,-33 11,-39 -4,-40 -17,-37 -30,-28 -37,-16 -20,-1 z"
   id="path37" />&#10;           <path
   fill="none"
   stroke="#1b1918"
   stroke-width="3"
   stroke-linejoin="miter"
   d="m 7333,15213 v 224 h 161 l 40,-7 32,-23 25,-33 11,-39 -4,-40 -17,-37 -30,-28 -37,-16 -20,-1 z"
   id="path38" />&#10;          </g>&#10;         </g>&#10;         <g
   class="com.sun.star.drawing.PolyPolygonShape"
   id="g40">&#10;          <g
   id="id16">&#10;           <rect
   class="BoundingBox"
   stroke="none"
   fill="none"
   x="7331"
   y="14793"
   width="265"
   height="206"
   id="rect38" />&#10;           <path
   fill="#ffec00"
   stroke="none"
   d="m 7333,14996 h 161 l 38,-8 30,-21 23,-31 8,-38 -6,-39 -21,-32 -32,-23 -37,-9 h -3 -161 z"
   id="path39" />&#10;           <path
   fill="none"
   stroke="#1b1918"
   stroke-width="3"
   stroke-linejoin="miter"
   d="m 7333,14996 h 161 l 38,-8 30,-21 23,-31 8,-38 -6,-39 -21,-32 -32,-23 -37,-9 h -3 -161 z"
   id="path40" />&#10;          </g>&#10;         </g>&#10;        </g>&#10;       </g>&#10;       <g
   class="Group"
   id="g57">&#10;        <g
   class="com.sun.star.drawing.PolyPolygonShape"
   id="g43">&#10;         <g
   id="id17">&#10;          <rect
   class="BoundingBox"
   stroke="none"
   fill="none"
   x="11701"
   y="12402"
   width="633"
   height="1006"
   id="rect42" />&#10;          <path
   fill="#1b1918"
   stroke="none"
   d="m 11703,13405 v -1001 h 613 v 190 h -422 v 210 h 312 v 191 h -312 v 219 h 437 v 191 z"
   id="path42" />&#10;          <path
   fill="none"
   stroke="#1b1918"
   stroke-width="3"
   stroke-linejoin="miter"
   d="m 11703,13405 v -1001 h 613 v 190 h -422 v 210 h 312 v 191 h -312 v 219 h 437 v 191 z"
   id="path43" />&#10;         </g>&#10;        </g>&#10;        <g
   class="com.sun.star.drawing.PolyPolygonShape"
   id="g45">&#10;         <g
   id="id18">&#10;          <rect
   class="BoundingBox"
   stroke="none"
   fill="none"
   x="10765"
   y="12400"
   width="637"
   height="1008"
   id="rect43" />&#10;          <path
   fill="#1b1918"
   stroke="none"
   d="m 10987,13405 v -811 h -220 v -192 h 632 v 192 h -222 v 811 z"
   id="path44" />&#10;          <path
   fill="none"
   stroke="#1b1918"
   stroke-width="3"
   stroke-linejoin="miter"
   d="m 10987,13405 v -811 h -220 v -192 h 632 v 192 h -222 v 811 z"
   id="path45" />&#10;         </g>&#10;        </g>&#10;        <g
   class="com.sun.star.drawing.PolyPolygonShape"
   id="g47">&#10;         <g
   id="id19">&#10;          <rect
   class="BoundingBox"
   stroke="none"
   fill="none"
   x="9781"
   y="12404"
   width="686"
   height="1006"
   id="rect45" />&#10;          <path
   fill="#1b1918"
   stroke="none"
   d="m 9783,12406 v 662 l 7,70 23,67 34,63 50,53 55,42 67,28 68,16 h 74 l 70,-18 65,-28 57,-42 48,-53 34,-61 21,-69 8,-68 v -662 h -189 v 662 l -8,45 -22,44 -35,32 -40,21 -48,6 -48,-7 -40,-21 -34,-35 -21,-42 -6,-43 v -662 z"
   id="path46" />&#10;          <path
   fill="none"
   stroke="#1b1918"
   stroke-width="3"
   stroke-linejoin="miter"
   d="m 9783,12406 v 662 l 7,70 23,67 34,63 50,53 55,42 67,28 68,16 h 74 l 70,-18 65,-28 57,-42 48,-53 34,-61 21,-69 8,-68 v -662 h -189 v 662 l -8,45 -22,44 -35,32 -40,21 -48,6 -48,-7 -40,-21 -34,-35 -21,-42 -6,-43 v -662 z"
   id="path47" />&#10;         </g>&#10;        </g>&#10;        <g
   class="Group"
   id="g52">&#10;         <g
   class="com.sun.star.drawing.PolyPolygonShape"
   id="g49">&#10;          <g
   id="id20">&#10;           <rect
   class="BoundingBox"
   stroke="none"
   fill="none"
   x="8723"
   y="12379"
   width="726"
   height="1029"
   id="rect47" />&#10;           <path
   fill="#1b1918"
   stroke="none"
   d="m 8791,12565 36,-59 48,-51 57,-36 67,-27 68,-11 72,3 67,19 61,33 53,44 44,57 15,28 -2,-4 36,97 23,97 8,99 2,78 h -2 l -8,101 -23,99 -36,93 2,-4 -36,59 -50,51 -57,38 -67,25 -66,11 -72,-3 -66,-19 -61,-33 -56,-44 -42,-55 -15,-30 2,4 -38,-95 -21,-99 -8,-99 -1,-78 h 1 l 8,-101 23,-97 36,-95 z"
   id="path48" />&#10;           <path
   fill="none"
   stroke="#1b1918"
   stroke-width="3"
   stroke-linejoin="miter"
   d="m 8791,12565 36,-59 48,-51 57,-36 67,-27 68,-11 72,3 67,19 61,33 53,44 44,57 15,28 -2,-4 36,97 23,97 8,99 2,78 h -2 l -8,101 -23,99 -36,93 2,-4 -36,59 -50,51 -57,38 -67,25 -66,11 -72,-3 -66,-19 -61,-33 -56,-44 -42,-55 -15,-30 2,4 -38,-95 -21,-99 -8,-99 -1,-78 h 1 l 8,-101 23,-97 36,-95 z"
   id="path49" />&#10;          </g>&#10;         </g>&#10;         <g
   class="com.sun.star.drawing.PolyPolygonShape"
   id="g51">&#10;          <g
   id="id21">&#10;           <rect
   class="BoundingBox"
   stroke="none"
   fill="none"
   x="8912"
   y="12570"
   width="345"
   height="648"
   id="rect49" />&#10;           <path
   fill="#ffec00"
   stroke="none"
   d="m 8961,12644 -30,80 -14,85 -2,45 -1,79 h 1 l 6,87 23,81 17,44 v -4 l 25,34 38,27 42,13 45,-1 44,-18 32,-28 19,-27 -2,4 31,-82 15,-85 2,-45 2,-79 h -2 l -8,-85 -23,-83 -17,-42 2,4 -27,-36 -34,-27 -44,-13 -47,1 -40,18 -36,28 -17,29 z"
   id="path50" />&#10;           <path
   fill="none"
   stroke="#1b1918"
   stroke-width="3"
   stroke-linejoin="miter"
   d="m 8961,12644 -30,80 -14,85 -2,45 -1,79 h 1 l 6,87 23,81 17,44 v -4 l 25,34 38,27 42,13 45,-1 44,-18 32,-28 19,-27 -2,4 31,-82 15,-85 2,-45 2,-79 h -2 l -8,-85 -23,-83 -17,-42 2,4 -27,-36 -34,-27 -44,-13 -47,1 -40,18 -36,28 -17,29 z"
   id="path51" />&#10;          </g>&#10;         </g>&#10;        </g>&#10;        <g
   class="Group"
   id="g56">&#10;         <g
   class="com.sun.star.drawing.PolyPolygonShape"
   id="g53">&#10;          <g
   id="id22">&#10;           <rect
   class="BoundingBox"
   stroke="none"
   fill="none"
   x="7698"
   y="12400"
   width="697"
   height="1008"
   id="rect52" />&#10;           <path
   fill="#1b1918"
   stroke="none"
   d="m 7700,13405 v -1003 h 330 l 72,7 69,23 64,36 55,48 44,59 29,65 17,70 v 73 l -14,70 -28,68 -40,59 -54,51 -17,13 164,361 h -214 l -143,-301 h -143 v 301 z"
   id="path52" />&#10;           <path
   fill="none"
   stroke="#1b1918"
   stroke-width="3"
   stroke-linejoin="miter"
   d="m 7700,13405 v -1003 h 330 l 72,7 69,23 64,36 55,48 44,59 29,65 17,70 v 73 l -14,70 -28,68 -40,59 -54,51 -17,13 164,361 h -214 l -143,-301 h -143 v 301 z"
   id="path53" />&#10;          </g>&#10;         </g>&#10;         <g
   class="com.sun.star.drawing.PolyPolygonShape"
   id="g55">&#10;          <g
   id="id23">&#10;           <rect
   class="BoundingBox"
   stroke="none"
   fill="none"
   x="7888"
   y="12591"
   width="307"
   height="324"
   id="rect53" />&#10;           <path
   fill="#ffec00"
   stroke="none"
   d="m 7890,12912 h 140 v 0 l 49,-8 43,-21 36,-34 25,-42 9,-50 -5,-46 -21,-46 -33,-38 -42,-23 -48,-11 h -13 -140 z"
   id="path54" />&#10;           <path
   fill="none"
   stroke="#1b1918"
   stroke-width="3"
   stroke-linejoin="miter"
   d="m 7890,12912 h 140 v 0 l 49,-8 43,-21 36,-34 25,-42 9,-50 -5,-46 -21,-46 -33,-38 -42,-23 -48,-11 h -13 -140 z"
   id="path55" />&#10;          </g>&#10;         </g>&#10;        </g>&#10;       </g>&#10;      </g>&#10;     </g>&#10;    </g>&#10;   </g>&#10;  </g>&#10; </g>&#10;</svg>
