<?xml version="1.0" encoding="utf-8"?>
<!-- Generator: Adobe Illustrator 28.3.0, SVG Export Plug-In . SVG Version: 6.00 Build 0)  -->
<svg version="1.1"
	 id="Calque_1" xmlns:rdf="http://www.w3.org/1999/02/22-rdf-syntax-ns#" xmlns:svg="http://www.w3.org/2000/svg" xmlns:dc="http://purl.org/dc/elements/1.1/" xmlns:sodipodi="http://sodipodi.sourceforge.net/DTD/sodipodi-0.dtd" xmlns:cc="http://creativecommons.org/ns#" xmlns:inkscape="http://www.inkscape.org/namespaces/inkscape" sodipodi:docname="AJAX.svg"
	 xmlns="http://www.w3.org/2000/svg" xmlns:xlink="http://www.w3.org/1999/xlink" x="0px" y="0px" viewBox="0 0 597 422.5"
	 style="enable-background:new 0 0 597 422.5;" xml:space="preserve">
<style type="text/css">
	.st0{fill:#FDCE00;}
</style>
<sodipodi:namedview  bordercolor="#666666" borderopacity="1" fit-margin-bottom="0" fit-margin-left="0" fit-margin-right="0" fit-margin-top="0" gridtolerance="10" guidetolerance="10" id="namedview25" inkscape:current-layer="g3" inkscape:cx="263.0125" inkscape:cy="211.248" inkscape:pageopacity="0" inkscape:pageshadow="2" inkscape:window-height="1004" inkscape:window-maximized="1" inkscape:window-width="1280" inkscape:window-x="-8" inkscape:window-y="-8" inkscape:zoom="1.2560553" objecttolerance="10" pagecolor="#ffffff" showgrid="false">
	</sodipodi:namedview>
<g id="g3" transform="translate(-144,-86.393009)">
	<path id="path5" inkscape:connector-curvature="0" class="st0" d="M172.3,500.4c-10.9,0-19.8-8.9-19.8-19.8V114.7
		c0-10.9,8.9-19.8,19.8-19.8h540.3c10.9,0,19.8,8.9,19.8,19.8v365.8c0,10.9-8.9,19.8-19.8,19.8H172.3z"/>
	<path id="path7" inkscape:connector-curvature="0" d="M712.7,103.4c6.3,0,11.3,5.1,11.3,11.3v365.8c0,6.3-5.1,11.3-11.3,11.3H172.3
		c-6.3,0-11.3-5.1-11.3-11.3V114.7c0-6.3,5.1-11.3,11.3-11.3L712.7,103.4 M712.7,86.4H172.3c-15.6,0-28.3,12.7-28.3,28.3v365.8
		c0,15.6,12.7,28.3,28.3,28.3h540.3c15.6,0,28.3-12.7,28.3-28.3V114.7C741,99.1,728.3,86.4,712.7,86.4z"/>
	<path id="path9" inkscape:connector-curvature="0" d="M591.2,245v-11.5h-30.2v-24.7h24.6v-11.5h-24.6v-24.7h30.2V161h-41.5v84
		L591.2,245L591.2,245z M525.7,172.5V161h-41.5v11.5h15.6V245H511v-72.5H525.7z M460.1,223.2V161h-11.3v62.2c0,2.9-1,5.3-2.9,7.3
		c-1.9,2-4.3,3-7.1,3c-1.4,0-2.8-0.3-4-0.8c-1.2-0.6-2.3-1.3-3.2-2.3c-0.9-1-1.6-2.1-2.2-3.3c-0.5-1.2-0.8-2.5-0.8-3.9V161h-11.3
		v62.2c0,6.2,2.1,11.4,6.2,15.6c4.2,4.2,9.2,6.2,15.1,6.2c5.8,0,10.8-2.1,15-6.4C458.1,234.5,460.1,229.3,460.1,223.2L460.1,223.2z
		 M382.3,223.2c0,3-1,5.4-2.9,7.4c-1.9,2-4.3,2.9-7.2,2.9c-2.8,0-5.2-1-7.1-3c-1.9-2-2.9-4.4-2.9-7.3v-40.3c0-2.9,1-5.3,2.9-7.3
		c1.9-2,4.3-3,7.1-3c2.9,0,5.3,1,7.2,2.9c1.9,2,2.9,4.4,2.9,7.4V223.2L382.3,223.2z M393.5,223.2v-40.3c0-6.1-2.1-11.2-6.4-15.5
		c-4.2-4.2-9.2-6.4-15-6.4c-5.7,0-10.7,2.2-15,6.5c-4.2,4.2-6.2,9.3-6.2,15.4v40.3c0,6.2,2.1,11.3,6.2,15.5c4.2,4.2,9.2,6.4,15,6.4
		c5.8,0,10.9-2.1,15.1-6.4C391.5,234.5,393.5,229.3,393.5,223.2L393.5,223.2z M314.2,200.3c-0.7,2.4-1.6,4.2-2.7,5.5
		c-1.1,1.3-2.4,2.2-4,2.7c-1.5,0.5-3.1,0.7-4.8,0.7h-6.6v-36.7h6.6c1.7,0,3.3,0.3,4.8,0.8c1.5,0.6,2.9,1.5,4,2.9
		c1.2,1.4,2.1,3.3,2.7,5.7c0.6,2.4,1,5.5,1,9.2C315.2,194.9,314.8,197.9,314.2,200.3z M327.5,245L314,218c3.9-2.1,6.9-5.2,9.1-9.3
		c2.2-4.1,3.3-10,3.3-17.6c0-5.4-0.6-9.9-1.8-13.7c-1.2-3.8-2.9-6.9-5-9.4c-2.1-2.4-4.6-4.2-7.5-5.3c-2.9-1.1-6-1.7-9.4-1.7h-17.9
		v84h11.3v-24.2h7l12.5,24.2H327.5L327.5,245z"/>
	<path id="path11" inkscape:connector-curvature="0" d="M623.8,355v-11.5h-30.2v-24.7h24.6v-11.5h-24.6v-24.7h30.2V271h-41.5v84
		L623.8,355L623.8,355z M551.1,261.3v-11.5l-27,4.8v11.5L551.1,261.3L551.1,261.3z M558.3,355v-11.5h-30.2v-24.7h24.6v-11.5h-24.6
		v-24.7h30.2V271h-41.5v84L558.3,355L558.3,355z M480,310.3c-0.7,2.4-1.6,4.2-2.7,5.5c-1.1,1.3-2.4,2.2-4,2.7
		c-1.5,0.5-3.1,0.7-4.8,0.7h-6.6v-36.7h6.6c1.7,0,3.3,0.3,4.8,0.8c1.5,0.6,2.9,1.5,4,2.9c1.2,1.4,2.1,3.3,2.7,5.7
		c0.6,2.4,1,5.5,1,9.2C481,304.9,480.7,307.9,480,310.3z M493.4,355l-13.6-27c3.9-2.1,6.9-5.2,9.1-9.3c2.2-4.1,3.3-10,3.3-17.6
		c0-5.4-0.6-9.9-1.8-13.7c-1.2-3.8-2.9-6.9-5-9.4c-2.1-2.4-4.6-4.2-7.5-5.3c-2.9-1.1-6-1.7-9.4-1.7h-17.9v84h11.3v-24.2h7l12.5,24.2
		L493.4,355L493.4,355z M413.9,310.3c-0.7,2.4-1.6,4.2-2.7,5.5c-1.1,1.3-2.4,2.2-4,2.7c-1.5,0.5-3.1,0.7-4.8,0.7h-6.6v-36.7h6.6
		c1.7,0,3.3,0.3,4.8,0.8c1.5,0.6,2.9,1.5,4,2.9c1.2,1.4,2.1,3.3,2.7,5.7c0.6,2.4,1,5.5,1,9.2C414.9,304.9,414.6,307.9,413.9,310.3z
		 M427.3,355l-13.6-27c3.9-2.1,6.9-5.2,9.1-9.3c2.2-4.1,3.3-10,3.3-17.6c0-5.4-0.6-9.9-1.8-13.7c-1.2-3.8-2.9-6.9-5-9.4
		c-2.1-2.4-4.6-4.2-7.5-5.3c-2.9-1.1-6-1.7-9.4-1.7h-17.9v84h11.3v-24.2h7l12.5,24.2L427.3,355L427.3,355z M347.6,330.9h-16.8
		l8.4-36.1L347.6,330.9z M363.7,355l-19-84h-11.2l-19,84h11.5l3-12.6h20.2l3,12.6H363.7z M273.7,318.8c2.6,0.8,4.8,2.3,6.4,4.6
		c1.6,2.2,2.4,4.8,2.4,7.6c0,3.4-1.2,6.4-3.7,8.9c-2.5,2.5-5.4,3.7-8.6,3.7h-6.6v-24.7L273.7,318.8L273.7,318.8z M282.4,295.1
		c0,2.8-0.8,5.3-2.4,7.6c-1.6,2.2-3.7,3.8-6.4,4.6h-10.2v-24.7h6.6c3.4,0,6.3,1.2,8.8,3.7C281.2,288.8,282.4,291.8,282.4,295.1
		L282.4,295.1z M293.7,330.9c0-7.3-2.6-13.2-7.7-17.9c5.1-4.6,7.7-10.6,7.7-17.9c0-6.6-2.4-12.3-7.1-17c-4.6-4.7-10.1-7.1-16.6-7.1
		h-17.9v84h17.9c6.6,0,12.1-2.4,16.7-7.1C291.4,343,293.7,337.4,293.7,330.9z"/>
	<path id="path13" inkscape:connector-curvature="0" d="M596,421.2v-21.3c0-4.8-1.8-9-5.3-12.6c-3.5-3.5-7.8-5.3-12.8-5.3
		c-5.5,0-9.9,1.9-13.4,5.8c-3.5-3.8-8-5.8-13.4-5.8c-3.4,0-6.5,0.9-9.5,2.6V382H533v39.2h8.6V400c0-2.5,0.9-4.7,2.8-6.5
		c1.8-1.9,4-2.8,6.7-2.8c2.1,0,4,0.6,5.7,1.8s2.8,2.8,3.4,4.8v24h8.6v-24c0.6-2,1.7-3.6,3.4-4.8c1.7-1.2,3.6-1.8,5.7-1.8
		c2.6,0,4.9,0.9,6.7,2.7c1.9,1.9,2.8,4.1,2.8,6.6v21.3L596,421.2L596,421.2z M307.1,445l-2.3-9.5h-15.1l-2.2,9.5h-8.6l14.2-63h8.4
		l14.2,63H307.1z M297.3,399.8l-6.3,27.1h12.6L297.3,399.8L297.3,399.8z M306.8,378.3v-8.6l-20.2-3.6v8.6L306.8,378.3z"/>
</g>
</svg>
