<?xml version="1.0" encoding="UTF-8"?>
<svg xmlns="http://www.w3.org/2000/svg" version="1.1" xmlns:cc="http://creativecommons.org/ns#" xmlns:dc="http://purl.org/dc/elements/1.1/" xmlns:inkscape="http://www.inkscape.org/namespaces/inkscape" xmlns:rdf="http://www.w3.org/1999/02/22-rdf-syntax-ns#" xmlns:sodipodi="http://sodipodi.sourceforge.net/DTD/sodipodi-0.dtd" xmlns:svg="http://www.w3.org/2000/svg" viewBox="0 0 2310 517">
  <!-- Generator: Adobe Illustrator 29.4.0, SVG Export Plug-In . SVG Version: 2.1.0 Build 152)  -->
  <defs>
    <style>
      .st0, .st1 {
        fill: none;
      }

      .st2 {
        fill: #f9ba11;
        stroke-miterlimit: 176.1;
        stroke-width: 7.5px;
      }

      .st2, .st1 {
        stroke: #000;
      }

      .st3 {
        fill-rule: evenodd;
      }

      .st1 {
        stroke-linejoin: round;
        stroke-width: 16.8px;
      }
    </style>
  </defs>
  <g id="svg3797" inkscape:version="0.48.4 r9939">
    <sodipodi:namedview id="base" bordercolor="#666666" borderopacity="1.0" inkscape:bbox-nodes="true" inkscape:bbox-paths="true" inkscape:current-layer="g3078" inkscape:cx="1577.2431" inkscape:cy="410.6808" inkscape:document-units="px" inkscape:guide-bbox="true" inkscape:object-nodes="true" inkscape:object-paths="true" inkscape:pageopacity="0.0" inkscape:pageshadow="2" inkscape:snap-bbox="true" inkscape:snap-bbox-edge-midpoints="true" inkscape:snap-bbox-midpoints="true" inkscape:snap-center="true" inkscape:snap-intersection-paths="true" inkscape:snap-midpoints="true" inkscape:snap-object-midpoints="true" inkscape:snap-page="true" inkscape:snap-smooth-nodes="true" inkscape:window-height="745" inkscape:window-maximized="1" inkscape:window-width="1366" inkscape:window-x="-8" inkscape:window-y="-8" inkscape:zoom="0.24748738" pagecolor="#ffffff" showgrid="false" showguides="true"/>
    <g id="layer1" inkscape:groupmode="layer" inkscape:label="Calque 1">
      <g id="g3850">
        <g id="g3004">
          <g id="g3078">
            <path id="path4386" class="st2" d="M2268.9,509.3l-1984.6-2L6.3,252.5,282.3,8.3l1982.6,1.3c44.5,6.6,41.1,2.7,45.8,17.9l-2.7,454.5c-4.6,10-10.6,23.2-39.1,27.2h0Z" inkscape:connector-curvature="0" sodipodi:nodetypes="ccccccccc"/>
            <path id="path3795" d="M279.6,499.3v16.6L22.2,293c-25.2-24.6-18.6-47.8,0-70.3L280.3-.3v16.6l-150,236.2,149.3,246.8Z" inkscape:connector-curvature="0" sodipodi:nodetypes="cccccccc"/>
            <g id="g3783">
              <g id="g3787">
                <path id="path3779" class="st1" d="M279.6,507.5l1988.8,2.1c16.6.3,39.2.6,38.6-21.9l.4-459.2c-1.3-10-9.1-17.7-23.9-19l-2003.3-1.5" inkscape:connector-curvature="0" sodipodi:nodetypes="cccccc"/>
              </g>
            </g>
          </g>
        </g>
      </g>
    </g>
    <g>
      <path d="M329.5,388.9v-248.5h34.9v248.5h-34.9ZM353.1,388.9v-33.2h56.2c18.3,0,32.6-4.8,42.6-14.3,10.1-9.5,15.1-22.9,15.1-40.2v-73.1c0-17.3-5-30.7-15.1-40.2s-24.3-14.3-42.6-14.3h-56.2v-33.2h55.2c30.1,0,53.3,7.8,69.8,23.3,16.5,15.6,24.7,37.5,24.7,65.7v70.4c0,18.8-3.7,34.8-11.1,48.1-7.4,13.3-18.2,23.4-32.3,30.4s-31.2,10.5-51.3,10.5h-55Z"/>
      <path d="M628.4,391.4c-24.7,0-43.9-6.9-57.4-20.7-13.6-13.8-20.3-33.4-20.3-58.8v-20c0-26.4,6.5-46.9,19.6-61.4,13-14.5,31.4-21.7,55.1-21.7s39.6,8.2,51.9,24.6c12.2,16.4,18.4,39.4,18.4,69v11.6h-119.8v-28h86.5c-1-14.4-4.8-25.6-11.2-33.7-6.4-8.1-15.1-12.1-25.9-12.1s-23.3,4.3-30.6,13-10.9,20.9-10.9,36.7v22.6c0,14.7,3.9,26,11.7,33.8,7.8,7.9,18.8,11.8,32.9,11.8s14.1-1.4,21-4.3c6.9-2.8,13.2-6.8,18.6-12l23,23.2c-8.8,8.4-18.6,15-29.6,19.6-10.9,4.5-21.9,6.8-33,6.8ZM626.2,177.3l-21.9-17.6,48.9-60.7,25.1,20.8-52.1,57.5Z"/>
      <path d="M804.4,338.1l43.4-126.6h36.4l-66.7,177.4h-26.3l-66.7-177.4h36.5l43.4,126.6Z"/>
      <path d="M918.4,175.3v-34.9h34.9v34.9h-34.9ZM918.4,388.9v-177.4h34.9v177.4h-34.9Z"/>
      <path d="M1063,391.4c-21.8,0-38.1-4.5-49-13.5s-16.3-22.8-16.3-41.4,5-30.8,15-39.6c10-8.7,24.9-13.1,44.9-13.1h50.4l2.4,28h-52.6c-9,0-15.8,2-20.3,6.1-4.6,4-6.8,10.2-6.8,18.5s3,15.7,9.1,20c6,4.3,15.1,6.5,27.2,6.5s23.1-1.4,29.7-4.3c6.6-2.8,9.9-7.3,9.9-13.3l3.6,25c-3.1,4.8-6.9,8.7-11.5,11.8-4.6,3.1-9.8,5.4-15.6,6.9-6.1,1.7-12.7,2.4-20.1,2.4ZM1106.4,388.9v-112.5c0-11.6-3.1-20.6-9.3-27.1-6.2-6.4-15-9.7-26.4-9.7s-13.8,1.1-20.6,3.2c-6.8,2.1-12.8,5.2-18.2,9.1l-25.5-17.4c6.7-8.1,15.6-14.4,26.6-18.9s23.2-6.8,36.7-6.8c22.2,0,39.4,5.8,51.6,17.3s18.3,27.7,18.3,48.7v114h-33.2Z"/>
      <path d="M1178.9,242.9v-31.4h80v31.4h-80ZM1238.7,389.7c-14.6,0-25.2-4-31.7-12.1-6.6-8.1-9.8-19.7-9.8-34.9v-182.8h34.9v183.2c0,4.2.9,7.5,2.6,9.9s4.2,3.6,7.5,3.6h16.7v33.2h-20.2Z"/>
      <path d="M1306.7,175.3v-34.9h34.9v34.9h-34.9ZM1306.7,388.9v-177.4h34.9v177.4h-34.9Z"/>
      <path d="M1462.6,391.4c-23.2,0-41.2-6.8-54-20.3s-19.1-32.5-19.1-57v-28.9c0-24.3,6.4-43.1,19.1-56.4,12.8-13.3,30.8-20,54-20s41.2,6.7,54,20,19.1,32.1,19.1,56.4v29.4c0,24.4-6.4,43.3-19.1,56.7-12.8,13.5-30.8,20.1-54,20.1ZM1462.6,358.3c12.2,0,21.6-3.8,28.3-11.5,6.7-7.6,10-18.3,10-32.1v-29.4c0-13.8-3.3-24.4-10-32-6.7-7.5-16.1-11.3-28.3-11.3s-21.5,3.8-28.2,11.3-10.1,18.2-10.1,32v29.4c0,13.8,3.4,24.5,10.1,32.1,6.7,7.7,16.1,11.5,28.2,11.5Z"/>
      <path d="M1585.3,388.9v-177.4h34.9v177.4h-34.9ZM1692.9,388.9v-107.5c0-12.5-3.2-22.2-9.7-29.1-6.4-6.8-15.6-10.3-27.4-10.3s-20.2,3-26.4,9.1c-6.2,6-9.3,14.5-9.3,25.5l-3.6-34.2c5.5-10.7,12.6-19,21.4-24.8s18.6-8.7,29.3-8.7c19.3,0,34.2,6.3,44.7,18.9,10.5,12.6,15.8,30.4,15.8,53.4v107.7h-34.8Z"/>
    </g>
    <g id="g18">
      <g id="g17">
        <g id="id6">
          <rect id="rect16" class="st0" x="1821" y="145.2" width="422.8" height="259.2"/>
          <path id="path17" class="st3" d="M1907.4,315.3c24.5,0,44.5,20,44.5,44.5s-20,44.5-44.5,44.5-44.5-20-44.5-44.5,20-44.5,44.5-44.5ZM2159.1,315.4c24.5,0,44.5,20,44.5,44.5s-20,44.4-44.5,44.4-44.5-20-44.5-44.4,20-44.5,44.5-44.5ZM1959.1,358c0-27.7-23.7-50.1-52-50.1s-51.9,21.9-51.9,50.3h-34.3c0-.1,0-20.1,0-20.1h7.2v-51.1c0-9.4,5.3-14,14.9-14.1l6-58.5c1.6-11.1,4.1-12.5,15.7-12.5h50.5v-46.5c0-5.4,5.7-10.2,11.1-10.1h306.5c6.9,0,10.6,2.9,10.6,10.1v203h-32c0-28.4-24.4-50.6-52.7-50.6s-53.1,21.6-53.2,50h-146.7ZM1915.6,213.6h-45c-7.9-.3-9.1.9-9.7,10.2l-4.8,49.1h59.4v-59.4Z"/>
        </g>
      </g>
    </g>
  </g>
</svg>