<?xml version="1.0" encoding="utf-8"?>
<!-- Generator: Adobe Illustrator 28.3.0, SVG Export Plug-In . SVG Version: 6.00 Build 0)  -->
<svg version="1.1"
	 id="svg3797" xmlns:svg="http://www.w3.org/2000/svg" xmlns:rdf="http://www.w3.org/1999/02/22-rdf-syntax-ns#" xmlns:dc="http://purl.org/dc/elements/1.1/" xmlns:inkscape="http://www.inkscape.org/namespaces/inkscape" xmlns:sodipodi="http://sodipodi.sourceforge.net/DTD/sodipodi-0.dtd" xmlns:cc="http://creativecommons.org/ns#" inkscape:version="0.48.4 r9939"
	 xmlns="http://www.w3.org/2000/svg" xmlns:xlink="http://www.w3.org/1999/xlink" x="0px" y="0px" viewBox="0 0 2310 517"
	 style="enable-background:new 0 0 2310 517;" xml:space="preserve">
<style type="text/css">
	.st0{fill:#F9BA11;stroke:#000000;stroke-width:1.1294;stroke-miterlimit:26.5407;}
	.st1{fill:none;stroke:#000000;stroke-width:16.7592;stroke-linejoin:round;}
</style>
<sodipodi:namedview  bordercolor="#666666" borderopacity="1.0" id="base" inkscape:bbox-nodes="true" inkscape:bbox-paths="true" inkscape:current-layer="g3078" inkscape:cx="1577.2431" inkscape:cy="410.6808" inkscape:document-units="px" inkscape:guide-bbox="true" inkscape:object-nodes="true" inkscape:object-paths="true" inkscape:pageopacity="0.0" inkscape:pageshadow="2" inkscape:snap-bbox="true" inkscape:snap-bbox-edge-midpoints="true" inkscape:snap-bbox-midpoints="true" inkscape:snap-center="true" inkscape:snap-intersection-paths="true" inkscape:snap-midpoints="true" inkscape:snap-object-midpoints="true" inkscape:snap-page="true" inkscape:snap-smooth-nodes="true" inkscape:window-height="745" inkscape:window-maximized="1" inkscape:window-width="1366" inkscape:window-x="-8" inkscape:window-y="-8" inkscape:zoom="0.24748738" pagecolor="#ffffff" showgrid="false" showguides="true">
	</sodipodi:namedview>
<g id="layer1" transform="translate(0,-535.36218)" inkscape:groupmode="layer" inkscape:label="Calque 1">
	<g id="g3850">
		<g id="g3004" transform="matrix(6.6351731,0,0,6.6351731,155.56419,621.33325)">
			<g id="g3078">
				<path id="path4386" inkscape:connector-curvature="0" sodipodi:nodetypes="ccccccccc" class="st0" d="M318.5,63.8L19.4,63.5
					l-41.9-38.4l41.6-36.8l298.8,0.2c6.7,1,6.2,0.4,6.9,2.7l-0.4,68.5C323.7,61.2,322.8,63.2,318.5,63.8L318.5,63.8z"/>
				<path id="path3795" inkscape:connector-curvature="0" sodipodi:nodetypes="cccccccc" d="M18.7,62.3l0,2.5l-38.8-33.6
					c-3.8-3.7-2.8-7.2,0-10.6L18.8-13l0,2.5L-3.8,25.1L18.7,62.3z"/>
				<g id="g3783" transform="matrix(0.19572111,0,0,0.15071197,-178.3913,162.09389)">
					<g id="g3787" transform="matrix(0.99995042,0,0,1.0005716,311.81179,-539.83462)">
						<path id="path3779" inkscape:connector-curvature="0" sodipodi:nodetypes="cccccc" class="st1" d="M695.2-114.1l1531.5,2.1
							c12.8,0.3,30.2,0.6,29.7-21.9l0.3-458.9c-1-10-7-17.7-18.4-19l-1542.7-1.5"/>
					</g>
				</g>
			</g>
		</g>
	</g>
</g>
<g>
	<g>
		<path d="M565.5,388.9V140.4h34.9v248.5H565.5z M589.1,388.9v-33.2h56.2c18.3,0,32.6-4.8,42.6-14.3c10.1-9.5,15.1-22.9,15.1-40.2
			v-73.1c0-17.3-5-30.7-15.1-40.2c-10.1-9.5-24.3-14.3-42.6-14.3h-56.2v-33.2h55.2c30.1,0,53.3,7.8,69.8,23.3
			c16.5,15.6,24.7,37.5,24.7,65.7v70.4c0,18.8-3.7,34.8-11.1,48.1c-7.4,13.3-18.2,23.4-32.3,30.4c-14.1,7-31.2,10.5-51.3,10.5H589.1
			z"/>
		<path d="M864.4,391.4c-24.7,0-43.9-6.9-57.4-20.7c-13.6-13.8-20.3-33.4-20.3-58.8v-20c0-26.4,6.5-46.9,19.6-61.4
			c13-14.5,31.4-21.7,55.1-21.7c22.3,0,39.6,8.2,51.9,24.6c12.2,16.4,18.4,39.4,18.4,69v11.6H811.9v-28h86.5
			c-1-14.4-4.8-25.6-11.2-33.7c-6.4-8.1-15.1-12.1-25.9-12.1c-13.1,0-23.3,4.3-30.6,13c-7.3,8.7-10.9,20.9-10.9,36.7v22.6
			c0,14.7,3.9,26,11.7,33.8c7.8,7.9,18.8,11.8,32.9,11.8c7.1,0,14.1-1.4,21-4.3c6.9-2.8,13.2-6.8,18.6-12L927,365
			c-8.8,8.4-18.6,15-29.6,19.6C886.5,389.1,875.5,391.4,864.4,391.4z M862.2,177.3l-21.9-17.6L889.2,99l25.1,20.8L862.2,177.3z"/>
		<path d="M1040.4,338.1l43.4-126.6h36.4l-66.7,177.4h-26.3l-66.7-177.4H997L1040.4,338.1z"/>
		<path d="M1154.4,175.3v-34.9h34.9v34.9H1154.4z M1154.4,388.9V211.5h34.9v177.4H1154.4z"/>
		<path d="M1299,391.4c-21.8,0-38.1-4.5-49-13.5c-10.9-9-16.3-22.8-16.3-41.4c0-17.7,5-30.8,15-39.6c10-8.7,24.9-13.1,44.9-13.1
			h50.4l2.4,28h-52.6c-9,0-15.8,2-20.3,6.1c-4.6,4-6.8,10.2-6.8,18.5c0,9,3,15.7,9.1,20c6,4.3,15.1,6.5,27.2,6.5
			c13.2,0,23.1-1.4,29.7-4.3c6.6-2.8,9.9-7.3,9.9-13.3l3.6,25c-3.1,4.8-6.9,8.7-11.5,11.8c-4.6,3.1-9.8,5.4-15.6,6.9
			C1313,390.7,1306.4,391.4,1299,391.4z M1342.4,388.9V276.4c0-11.6-3.1-20.6-9.3-27.1c-6.2-6.4-15-9.7-26.4-9.7
			c-7,0-13.8,1.1-20.6,3.2c-6.8,2.1-12.8,5.2-18.2,9.1l-25.5-17.4c6.7-8.1,15.6-14.4,26.6-18.9c11-4.5,23.2-6.8,36.7-6.8
			c22.2,0,39.4,5.8,51.6,17.3c12.2,11.5,18.3,27.7,18.3,48.7v114H1342.4z"/>
		<path d="M1414.9,242.9v-31.4h80v31.4H1414.9z M1474.7,389.7c-14.6,0-25.2-4-31.7-12.1c-6.6-8.1-9.8-19.7-9.8-34.9V159.9h34.9
			v183.2c0,4.2,0.9,7.5,2.6,9.9s4.2,3.6,7.5,3.6h16.7v33.2H1474.7z"/>
		<path d="M1542.7,175.3v-34.9h34.9v34.9H1542.7z M1542.7,388.9V211.5h34.9v177.4H1542.7z"/>
		<path d="M1698.6,391.4c-23.2,0-41.2-6.8-54-20.3c-12.8-13.5-19.1-32.5-19.1-57v-28.9c0-24.3,6.4-43.1,19.1-56.4
			c12.8-13.3,30.8-20,54-20s41.2,6.7,54,20c12.8,13.3,19.1,32.1,19.1,56.4v29.4c0,24.4-6.4,43.3-19.1,56.7
			C1739.8,384.8,1721.8,391.4,1698.6,391.4z M1698.6,358.3c12.2,0,21.6-3.8,28.3-11.5c6.7-7.6,10-18.3,10-32.1v-29.4
			c0-13.8-3.3-24.4-10-32c-6.7-7.5-16.1-11.3-28.3-11.3c-12.1,0-21.5,3.8-28.2,11.3c-6.7,7.5-10.1,18.2-10.1,32v29.4
			c0,13.8,3.4,24.5,10.1,32.1C1677.1,354.5,1686.5,358.3,1698.6,358.3z"/>
		<path d="M1821.3,388.9V211.5h34.9v177.4H1821.3z M1928.9,388.9V281.4c0-12.5-3.2-22.2-9.7-29.1c-6.4-6.8-15.6-10.3-27.4-10.3
			c-11.4,0-20.2,3-26.4,9.1c-6.2,6-9.3,14.5-9.3,25.5l-3.6-34.2c5.5-10.7,12.6-19,21.4-24.8c8.8-5.8,18.6-8.7,29.3-8.7
			c19.3,0,34.2,6.3,44.7,18.9c10.5,12.6,15.8,30.4,15.8,53.4v107.7H1928.9z"/>
	</g>
</g>
</svg>
