<?xml version="1.0" encoding="UTF-8"?>
<svg id="svg3797" xmlns="http://www.w3.org/2000/svg" viewBox="0 0 2315.01 516.91">
  <defs>
    <style>
      .cls-1, .cls-2 {
        fill: none;
      }

      .cls-3 {
        fill: #f9ba11;
        stroke-miterlimit: 176.1;
        stroke-width: 7.49px;
      }

      .cls-3, .cls-2 {
        stroke: #000;
      }

      .cls-4 {
        fill-rule: evenodd;
      }

      .cls-2 {
        stroke-linejoin: round;
        stroke-width: 16.76px;
      }
    </style>
  </defs>
  <g id="layer1">
    <g id="g3850">
      <g id="g3004">
        <g id="g3078">
          <path id="path4386" class="cls-3" d="M46.82,8.28h1984.58l278.01,254.79-276.02,244.84H50.8c-44.46-6.64-41.14-2.65-45.78-17.91L7.01,35.48c4.64-9.95,10.62-23.22,39.81-27.2h0Z"/>
          <path id="path3795" d="M2035.38,16.91V.32l257.44,222.94c25.21,24.55,18.58,47.77,0,70.33l-257.44,222.94v-16.59l149.95-236.21-149.95-246.83Z"/>
          <g id="g3783">
            <g id="g3787">
              <path id="path3779" class="cls-2" d="M2035.73,8.75l-1988.77-.3c-16.62-.3-39.22-.6-38.57,22.01v459.06c1.3,10.01,9.09,17.71,24.02,19.01l2003.32-.3"/>
            </g>
          </g>
        </g>
      </g>
    </g>
  </g>
  <g>
    <path d="M537.51,384.74v-248.5h34.9v248.5h-34.9ZM561.11,384.74v-33.2h56.3c18.3,0,32.6-4.8,42.6-14.3,10.1-9.5,15.1-22.9,15.1-40.2v-73.1c0-17.3-5-30.7-15.1-40.2s-24.3-14.3-42.6-14.3h-56.2v-33.2h55.2c30.1,0,53.3,7.8,69.8,23.3,16.5,15.6,24.7,37.5,24.7,65.7v70.4c0,18.8-3.7,34.8-11.1,48.1-7.4,13.3-18.2,23.4-32.3,30.4-14.1,7-31.2,10.5-51.3,10.5h-55.1v.1Z"/>
    <path d="M836.41,387.34c-24.7,0-43.9-6.9-57.4-20.7-13.6-13.8-20.3-33.4-20.3-58.8v-20c0-26.4,6.5-46.9,19.6-61.4,13-14.5,31.4-21.7,55.1-21.7,22.3,0,39.6,8.2,51.9,24.6,12.2,16.4,18.4,39.4,18.4,69v11.6h-119.7v-28h86.5c-1-14.4-4.8-25.6-11.2-33.7-6.4-8.1-15.1-12.1-25.9-12.1-13.1,0-23.3,4.3-30.6,13s-10.9,20.9-10.9,36.7v22.6c0,14.7,3.9,26,11.7,33.8,7.8,7.9,18.8,11.8,32.9,11.8,7.1,0,14.1-1.4,21-4.3,6.9-2.8,13.2-6.8,18.6-12l22.9,22.9c-8.8,8.4-18.6,15-29.6,19.6-10.9,4.7-21.9,7.1-33,7.1ZM834.21,173.14l-21.8-17.6,48.9-60.7,25.1,20.8-52.2,57.5Z"/>
    <path d="M1012.51,333.94l43.4-126.6h36.4l-66.7,177.4h-26.3l-66.7-177.4h36.4l43.5,126.6Z"/>
    <path d="M1126.51,171.14v-34.9h34.9v34.9h-34.9ZM1126.51,384.74v-177.4h34.9v177.4h-34.9Z"/>
    <path d="M1271.01,387.34c-21.8,0-38.1-4.5-49-13.5s-16.3-22.8-16.3-41.4,5-30.8,15-39.6c10-8.7,24.9-13.1,44.9-13.1h50.4l2.4,28h-52.6c-9,0-15.8,2-20.3,6.1-4.6,4-6.8,10.2-6.8,18.5,0,9,3,15.7,9.1,20,6,4.3,15.1,6.5,27.2,6.5,13.2,0,23.1-1.4,29.7-4.3,6.6-2.8,9.9-7.3,9.9-13.3l3.6,25c-3.1,4.8-6.9,8.7-11.4,11.8-4.6,3.1-9.8,5.4-15.6,6.9-6.1,1.6-12.8,2.4-20.2,2.4ZM1314.41,384.74v-112.5c0-11.6-3.1-20.6-9.3-27.1-6.2-6.4-15-9.7-26.4-9.7-7,0-13.8,1.1-20.6,3.2-6.8,2.1-12.8,5.2-18.2,9.1l-25.5-17.4c6.7-8.1,15.6-14.4,26.6-18.9s23.2-6.8,36.7-6.8c22.2,0,39.4,5.8,51.6,17.3s18.3,27.7,18.3,48.7v114h-33.2v.1Z"/>
    <path d="M1386.91,238.74v-31.4h80v31.4h-80ZM1446.71,385.54c-14.6,0-25.2-4-31.7-12.1-6.6-8.1-9.8-19.7-9.8-34.9v-182.8h34.9v183.2c0,4.2.9,7.5,2.6,9.9s4.2,3.6,7.5,3.6h16.7v33.2h-20.2v-.1Z"/>
    <path d="M1514.71,171.14v-34.9h34.9v34.9h-34.9ZM1514.71,384.74v-177.4h34.9v177.4h-34.9Z"/>
    <path d="M1670.61,387.34c-23.2,0-41.2-6.8-54-20.3s-19.1-32.5-19.1-57v-28.9c0-24.3,6.4-43.1,19.1-56.4,12.8-13.3,30.8-20,54-20s41.2,6.7,54,20,19.1,32.1,19.1,56.4v29.4c0,24.4-6.4,43.3-19.1,56.7-12.8,13.4-30.8,20.1-54,20.1ZM1670.61,354.14c12.2,0,21.6-3.8,28.3-11.5,6.7-7.6,10-18.3,10-32.1v-29.4c0-13.8-3.3-24.4-10-32-6.7-7.5-16.1-11.3-28.3-11.3s-21.5,3.8-28.2,11.3-10.1,18.2-10.1,32v29.4c0,13.8,3.4,24.5,10.1,32.1,6.7,7.7,16.1,11.5,28.2,11.5Z"/>
    <path d="M1793.31,384.74v-177.4h34.9v177.4h-34.9ZM1901.01,384.74v-107.5c0-12.5-3.2-22.2-9.7-29.1-6.4-6.8-15.6-10.3-27.4-10.3s-20.2,3-26.4,9.1c-6.2,6-9.3,14.5-9.3,25.5l-3.6-34.2c5.5-10.7,12.6-19,21.4-24.8s18.6-8.7,29.3-8.7c19.3,0,34.2,6.3,44.7,18.9,10.5,12.6,15.8,30.4,15.8,53.4v107.7h-34.8Z"/>
  </g>
  <g id="g17">
    <g id="id6">
      <rect id="rect16" class="cls-1" x="70.05" y="152.2" width="399.44" height="244.91" transform="translate(542.97 545.89) rotate(179.28)"/>
      <path id="path17" class="cls-4" d="M430.88,352.88c.29,23.15-18.35,42.26-41.49,42.55-23.15.29-42.26-18.35-42.55-41.49-.29-23.19,18.35-42.3,41.49-42.6,23.15-.29,42.26,18.35,42.55,41.54ZM193.05,356.02c.29,23.1-18.35,42.21-41.49,42.51-23.15.29-42.26-18.35-42.55-41.45-.29-23.19,18.35-42.3,41.49-42.6,23.15-.29,42.26,18.35,42.55,41.54ZM201.38,353.93c-.47-26.83-24.15-46.98-50.89-46.65s-49.4,21.61-49.15,48.4l-30.25.38-2.42-191.77c-.09-6.83,3.38-9.62,9.9-9.7l289.61-3.65c5.12-.15,10.53,4.32,10.59,9.44l.55,43.95,47.73-.6c10.97-.14,13.36,1.09,14.98,11.59l6.4,55.21c9.03-.02,14.21,4.27,14.33,13.17l.52,48.27,6.83-.09.33,18.87-32.4.54c-.34-26.88-22.76-47.27-49.59-46.93-26.74.34-48.95,21.74-48.53,47.94l-138.56,1.61ZM380.19,271.44l56.09-.71-5.08-46.37c-.65-8.85-1.74-9.91-9.25-9.55l-42.56.54.8,56.09Z"/>
    </g>
  </g>
</svg>