<?xml version="1.0" encoding="UTF-8" standalone="no"?>
<svg
   version="1.2"
   width="160.08mm"
   height="75.07mm"
   viewBox="0 0 16008.001 7507"
   preserveAspectRatio="xMidYMid"
   fill-rule="evenodd"
   stroke-width="28.222"
   stroke-linejoin="round"
   xml:space="preserve"
   id="svg71"
   sodipodi:docname="KD69b.svg"
   xmlns:inkscape="http://www.inkscape.org/namespaces/inkscape"
   xmlns:sodipodi="http://sodipodi.sourceforge.net/DTD/sodipodi-0.dtd"
   xmlns="http://www.w3.org/2000/svg"
   xmlns:svg="http://www.w3.org/2000/svg"
   xmlns:ooo="http://xml.openoffice.org/svg/export"><sodipodi:namedview
   id="namedview71"
   pagecolor="#ffffff"
   bordercolor="#000000"
   borderopacity="0.25"
   inkscape:showpageshadow="2"
   inkscape:pageopacity="0.0"
   inkscape:pagecheckerboard="0"
   inkscape:deskcolor="#d1d1d1"
   inkscape:document-units="mm"
   fit-margin-top="50"
   fit-margin-left="50"
   fit-margin-right="50"
   fit-margin-bottom="50" />&#10; <defs
   class="ClipPathGroup"
   id="defs2">&#10;  <clipPath
   id="presentation_clip_path"
   clipPathUnits="userSpaceOnUse">&#10;   <rect
   x="0"
   y="0"
   width="21001"
   height="29703"
   id="rect1" />&#10;  </clipPath>&#10;  <clipPath
   id="presentation_clip_path_shrink"
   clipPathUnits="userSpaceOnUse">&#10;   <rect
   x="21"
   y="29"
   width="20959"
   height="29644"
   id="rect2" />&#10;  </clipPath>&#10; </defs>&#10; <defs
   class="TextShapeIndex"
   id="defs3">&#10;  <g
   ooo:slide="id1"
   ooo:id-list="id3 id4 id5 id6 id7 id8 id9 id10 id11 id12 id13 id14 id15 id16 id17 id18 id19 id20 id21 id22 id23 id24 id25 id26 id27 id28"
   id="g2" />&#10; </defs>&#10; <defs
   class="EmbeddedBulletChars"
   id="defs12">&#10;  <g
   id="bullet-char-template-57356"
   transform="matrix(4.8828125e-4,0,0,-4.8828125e-4,0,0)">&#10;   <path
   d="M 580,1141 1163,571 580,0 -4,571 Z"
   id="path3" />&#10;  </g>&#10;  <g
   id="bullet-char-template-57354"
   transform="matrix(4.8828125e-4,0,0,-4.8828125e-4,0,0)">&#10;   <path
   d="M 8,1128 H 1137 V 0 H 8 Z"
   id="path4" />&#10;  </g>&#10;  <g
   id="bullet-char-template-10146"
   transform="matrix(4.8828125e-4,0,0,-4.8828125e-4,0,0)">&#10;   <path
   d="M 174,0 602,739 174,1481 1456,739 Z M 1358,739 309,1346 659,739 Z"
   id="path5" />&#10;  </g>&#10;  <g
   id="bullet-char-template-10132"
   transform="matrix(4.8828125e-4,0,0,-4.8828125e-4,0,0)">&#10;   <path
   d="M 2015,739 1276,0 H 717 l 543,543 H 174 v 393 h 1086 l -543,545 h 557 z"
   id="path6" />&#10;  </g>&#10;  <g
   id="bullet-char-template-10007"
   transform="matrix(4.8828125e-4,0,0,-4.8828125e-4,0,0)">&#10;   <path
   d="m 0,-2 c -7,16 -16,29 -25,39 l 381,530 c -94,256 -141,385 -141,387 0,25 13,38 40,38 9,0 21,-2 34,-5 21,4 42,12 65,25 l 27,-13 111,-251 280,301 64,-25 24,25 c 21,-10 41,-24 62,-43 C 886,937 835,863 770,784 769,783 710,716 594,584 L 774,223 c 0,-27 -21,-55 -63,-84 l 16,-20 C 717,90 699,76 672,76 641,76 570,178 457,381 L 164,-76 c -22,-34 -53,-51 -92,-51 -42,0 -63,17 -64,51 -7,9 -10,24 -10,44 0,9 1,19 2,30 z"
   id="path7" />&#10;  </g>&#10;  <g
   id="bullet-char-template-10004"
   transform="matrix(4.8828125e-4,0,0,-4.8828125e-4,0,0)">&#10;   <path
   d="M 285,-33 C 182,-33 111,30 74,156 52,228 41,333 41,471 c 0,78 14,145 41,201 34,71 87,106 158,106 53,0 88,-31 106,-94 l 23,-176 c 8,-64 28,-97 59,-98 l 735,706 c 11,11 33,17 66,17 42,0 63,-15 63,-46 V 965 c 0,-36 -10,-64 -30,-84 L 442,47 C 390,-6 338,-33 285,-33 Z"
   id="path8" />&#10;  </g>&#10;  <g
   id="bullet-char-template-9679"
   transform="matrix(4.8828125e-4,0,0,-4.8828125e-4,0,0)">&#10;   <path
   d="M 813,0 C 632,0 489,54 383,161 276,268 223,411 223,592 c 0,181 53,324 160,431 106,107 249,161 430,161 179,0 323,-54 432,-161 108,-107 162,-251 162,-431 0,-180 -54,-324 -162,-431 C 1136,54 992,0 813,0 Z"
   id="path9" />&#10;  </g>&#10;  <g
   id="bullet-char-template-8226"
   transform="matrix(4.8828125e-4,0,0,-4.8828125e-4,0,0)">&#10;   <path
   d="m 346,457 c -73,0 -137,26 -191,78 -54,51 -81,114 -81,188 0,73 27,136 81,188 54,52 118,78 191,78 73,0 134,-26 185,-79 51,-51 77,-114 77,-187 0,-75 -25,-137 -76,-188 -50,-52 -112,-78 -186,-78 z"
   id="path10" />&#10;  </g>&#10;  <g
   id="bullet-char-template-8211"
   transform="matrix(4.8828125e-4,0,0,-4.8828125e-4,0,0)">&#10;   <path
   d="M -4,459 H 1135 V 606 H -4 Z"
   id="path11" />&#10;  </g>&#10;  <g
   id="bullet-char-template-61548"
   transform="matrix(4.8828125e-4,0,0,-4.8828125e-4,0,0)">&#10;   <path
   d="m 173,740 c 0,163 58,303 173,419 116,115 255,173 419,173 163,0 302,-58 418,-173 116,-116 174,-256 174,-419 0,-163 -58,-303 -174,-418 C 1067,206 928,148 765,148 601,148 462,206 346,322 231,437 173,577 173,740 Z"
   id="path12" />&#10;  </g>&#10; </defs>&#10; <g
   id="g12"
   transform="translate(-2010,-10506)">&#10;  <g
   id="id2"
   class="Master_Slide">&#10;   <g
   id="bg-id2"
   class="Background" />&#10;   <g
   id="bo-id2"
   class="BackgroundObjects" />&#10;  </g>&#10; </g>&#10; <g
   class="SlideGroup"
   id="g71"
   transform="translate(-2010,-10506)">&#10;  <g
   id="g70">&#10;   <g
   id="container-id1">&#10;    <g
   id="id1"
   class="Slide"
   clip-path="url(#presentation_clip_path)">&#10;     <g
   class="Page"
   id="g69">&#10;      <g
   class="Group"
   id="g68">&#10;       <g
   class="Group"
   id="g17">&#10;        <g
   class="com.sun.star.drawing.ClosedBezierShape"
   id="g14">&#10;         <g
   id="id3">&#10;          <rect
   class="BoundingBox"
   stroke="none"
   fill="none"
   x="2010"
   y="10506"
   width="16008"
   height="7507"
   id="rect12" />&#10;          <path
   fill="#1b1918"
   stroke="none"
   d="m 2012,11005 v 6507 c 0,332 166,498 497,498 h 15008 c 332,0 498,-166 498,-498 v -6507 c 0,-331 -166,-497 -498,-497 H 2509 c -331,0 -497,166 -497,497 z"
   id="path13" />&#10;          <path
   fill="none"
   stroke="#1b1918"
   stroke-width="3"
   stroke-linejoin="miter"
   d="m 2012,11005 v 6507 c 0,332 166,498 497,498 h 15008 c 332,0 498,-166 498,-498 v -6507 c 0,-331 -166,-497 -498,-497 H 2509 c -331,0 -497,166 -497,497 z"
   id="path14" />&#10;         </g>&#10;        </g>&#10;        <g
   class="com.sun.star.drawing.ClosedBezierShape"
   id="g16">&#10;         <g
   id="id4">&#10;          <rect
   class="BoundingBox"
   stroke="none"
   fill="none"
   x="2208"
   y="10704"
   width="15609"
   height="7110"
   id="rect14" />&#10;          <path
   fill="#ffec00"
   stroke="none"
   d="m 2210,11008 v 6501 c 0,201 101,302 302,302 h 14999 c 202,0 303,-101 303,-302 v -6501 c 0,-201 -101,-302 -303,-302 H 2512 c -201,0 -302,101 -302,302 z"
   id="path15" />&#10;          <path
   fill="none"
   stroke="#1b1918"
   stroke-width="3"
   stroke-linejoin="miter"
   d="m 2210,11008 v 6501 c 0,201 101,302 302,302 h 14999 c 202,0 303,-101 303,-302 v -6501 c 0,-201 -101,-302 -303,-302 H 2512 c -201,0 -302,101 -302,302 z"
   id="path16" />&#10;         </g>&#10;        </g>&#10;       </g>&#10;       <g
   class="Group"
   id="g50">&#10;        <g
   class="Group"
   id="g21">&#10;         <g
   class="com.sun.star.drawing.PolyPolygonShape"
   id="g18">&#10;          <g
   id="id5">&#10;           <rect
   class="BoundingBox"
   stroke="none"
   fill="none"
   x="9675"
   y="15333"
   width="1170"
   height="1449"
   id="rect17" />&#10;           <path
   fill="#1b1918"
   stroke="none"
   d="m 10356,16758 v -5 l 23,-190 v 0 l -64,81 -76,63 -89,51 v 0 l -86,21 h -92 l -74,-18 v 2 l -74,-40 -61,-51 -46,-69 -28,-76 -5,-25 v -3 l -7,-96 12,-92 15,-51 v 0 l 39,-86 58,-81 69,-65 10,-8 v 0 l 97,-55 110,-39 35,-7 v -3 l 234,-25 142,-5 v 0 l 23,-140 5,-46 h -5 l -8,-50 -30,-46 -43,-28 v -3 0 l -64,-12 -63,7 -51,21 v 0 l -56,53 -38,63 -18,66 -308,-5 v 3 l 23,-97 43,-89 58,-78 34,-33 h 3 l 99,-61 104,-46 112,-25 117,-5 111,12 65,18 v -3 l 74,33 66,49 45,66 8,10 v 3 l 30,81 8,89 -8,81 -137,761 v -5 l -33,223 -2,3 -309,2 z"
   id="path17" />&#10;           <path
   fill="none"
   stroke="#1b1918"
   stroke-width="3"
   stroke-linejoin="miter"
   d="m 10356,16758 v -5 l 23,-190 v 0 l -64,81 -76,63 -89,51 v 0 l -86,21 h -92 l -74,-18 v 2 l -74,-40 -61,-51 -46,-69 -28,-76 -5,-25 v -3 l -7,-96 12,-92 15,-51 v 0 l 39,-86 58,-81 69,-65 10,-8 v 0 l 97,-55 110,-39 35,-7 v -3 l 234,-25 142,-5 v 0 l 23,-140 5,-46 h -5 l -8,-50 -30,-46 -43,-28 v -3 0 l -64,-12 -63,7 -51,21 v 0 l -56,53 -38,63 -18,66 -308,-5 v 3 l 23,-97 43,-89 58,-78 34,-33 h 3 l 99,-61 104,-46 112,-25 117,-5 111,12 65,18 v -3 l 74,33 66,49 45,66 8,10 v 3 l 30,81 8,89 -8,81 -137,761 v -5 l -33,223 -2,3 -309,2 z"
   id="path18" />&#10;          </g>&#10;         </g>&#10;         <g
   class="com.sun.star.drawing.PolyPolygonShape"
   id="g20">&#10;          <g
   id="id6">&#10;           <rect
   class="BoundingBox"
   stroke="none"
   fill="none"
   x="9961"
   y="16102"
   width="496"
   height="466"
   id="rect18" />&#10;           <path
   fill="#ffec00"
   stroke="none"
   d="m 10454,16104 v 0 l -173,10 -20,2 v 3 l -95,25 -54,26 v 0 l -61,43 -45,54 -31,69 -10,51 h -2 v 55 l 17,55 38,40 33,18 3,3 66,7 48,-10 v 0 l 75,-33 58,-53 39,-52 v 0 l 60,-119 41,-131 z"
   id="path19" />&#10;           <path
   fill="none"
   stroke="#1b1918"
   stroke-width="3"
   stroke-linejoin="miter"
   d="m 10454,16104 v 0 l -173,10 -20,2 v 3 l -95,25 -54,26 v 0 l -61,43 -45,54 -31,69 -10,51 h -2 v 55 l 17,55 38,40 33,18 3,3 66,7 48,-10 v 0 l 75,-33 58,-53 39,-52 v 0 l 60,-119 41,-131 z"
   id="path20" />&#10;          </g>&#10;         </g>&#10;        </g>&#10;        <g
   class="Group"
   id="g27">&#10;         <g
   class="com.sun.star.drawing.PolyPolygonShape"
   id="g22">&#10;          <g
   id="id7">&#10;           <rect
   class="BoundingBox"
   stroke="none"
   fill="none"
   x="5822"
   y="15322"
   width="1157"
   height="1462"
   id="rect21" />&#10;           <path
   fill="#1b1918"
   stroke="none"
   d="m 6549,16313 341,10 -3,3 -45,115 -66,109 -71,92 v 0 l -75,58 -81,43 -92,26 -20,2 v 0 l -112,10 -117,-10 -113,-30 -12,-5 v 2 l -79,-43 -61,-56 -51,-74 -18,-35 v -3 l -35,-125 -15,-125 5,-127 10,-63 v 0 l 38,-171 58,-162 46,-103 h 3 l 66,-99 79,-89 13,-10 -2,-2 91,-56 97,-44 106,-22 54,-5 v 0 l 109,2 110,23 36,13 v 0 l 73,40 64,56 48,71 31,79 2,18 v 0 l 15,130 -2,122 h 2 l -22,181 -21,101 -783,-12 v 2 l -16,112 6,114 2,16 h 3 l 20,62 23,33 h -3 l 43,38 54,20 h 58 l 56,-15 38,-31 v 3 l 56,-69 43,-80 13,-40 z"
   id="path21" />&#10;           <path
   fill="none"
   stroke="#1b1918"
   stroke-width="3"
   stroke-linejoin="miter"
   d="m 6549,16313 341,10 -3,3 -45,115 -66,109 -71,92 v 0 l -75,58 -81,43 -92,26 -20,2 v 0 l -112,10 -117,-10 -113,-30 -12,-5 v 2 l -79,-43 -61,-56 -51,-74 -18,-35 v -3 l -35,-125 -15,-125 5,-127 10,-63 v 0 l 38,-171 58,-162 46,-103 h 3 l 66,-99 79,-89 13,-10 -2,-2 91,-56 97,-44 106,-22 54,-5 v 0 l 109,2 110,23 36,13 v 0 l 73,40 64,56 48,71 31,79 2,18 v 0 l 15,130 -2,122 h 2 l -22,181 -21,101 -783,-12 v 2 l -16,112 6,114 2,16 h 3 l 20,62 23,33 h -3 l 43,38 54,20 h 58 l 56,-15 38,-31 v 3 l 56,-69 43,-80 13,-40 z"
   id="path22" />&#10;          </g>&#10;         </g>&#10;         <g
   class="com.sun.star.drawing.PolyPolygonShape"
   id="g24">&#10;          <g
   id="id8">&#10;           <rect
   class="BoundingBox"
   stroke="none"
   fill="none"
   x="6209"
   y="15542"
   width="457"
   height="359"
   id="rect22" />&#10;           <path
   fill="#ffec00"
   stroke="none"
   d="m 6648,15898 15,-92 -2,-90 -23,-89 -3,-7 v 2 l -38,-40 -46,-28 -56,-10 -36,5 v 0 l -61,22 -56,39 -44,55 -8,13 h 3 l -61,146 -20,66 z"
   id="path23" />&#10;           <path
   fill="none"
   stroke="#1b1918"
   stroke-width="3"
   stroke-linejoin="miter"
   d="m 6648,15898 15,-92 -2,-90 -23,-89 -3,-7 v 2 l -38,-40 -46,-28 -56,-10 -36,5 v 0 l -61,22 -56,39 -44,55 -8,13 h 3 l -61,146 -20,66 z"
   id="path24" />&#10;          </g>&#10;         </g>&#10;         <g
   class="com.sun.star.drawing.PolyPolygonShape"
   id="g26">&#10;          <g
   id="id9">&#10;           <rect
   class="BoundingBox"
   stroke="none"
   fill="none"
   x="6310"
   y="14756"
   width="588"
   height="456"
   id="rect24" />&#10;           <path
   fill="#1b1918"
   stroke="none"
   d="m 6313,15209 248,-451 h 332 l -392,451 z"
   id="path25" />&#10;           <path
   fill="none"
   stroke="#1b1918"
   stroke-width="3"
   stroke-linejoin="miter"
   d="m 6313,15209 248,-451 h 332 l -392,451 z"
   id="path26" />&#10;          </g>&#10;         </g>&#10;        </g>&#10;        <g
   class="Group"
   id="g31">&#10;         <g
   class="com.sun.star.drawing.PolyPolygonShape"
   id="g28">&#10;          <g
   id="id10">&#10;           <rect
   class="BoundingBox"
   stroke="none"
   fill="none"
   x="8764"
   y="15355"
   width="575"
   height="1413"
   id="rect27" />&#10;           <path
   fill="#1b1918"
   stroke="none"
   d="m 8766,16762 251,-1400 319,-5 -254,1408 z"
   id="path27" />&#10;           <path
   fill="none"
   stroke="#1b1918"
   stroke-width="3"
   stroke-linejoin="miter"
   d="m 8766,16762 251,-1400 319,-5 -254,1408 z"
   id="path28" />&#10;          </g>&#10;         </g>&#10;         <g
   class="com.sun.star.drawing.PolyPolygonShape"
   id="g30">&#10;          <g
   id="id11">&#10;           <rect
   class="BoundingBox"
   stroke="none"
   fill="none"
   x="9064"
   y="14761"
   width="386"
   height="329"
   id="rect28" />&#10;           <path
   fill="#1b1918"
   stroke="none"
   d="m 9070,15080 58,-312 319,-5 -71,324 -308,-5 z"
   id="path29" />&#10;           <path
   fill="none"
   stroke="#1b1918"
   stroke-width="3"
   stroke-linejoin="miter"
   d="m 9070,15080 58,-312 319,-5 -71,324 -308,-5 z"
   id="path30" />&#10;          </g>&#10;         </g>&#10;        </g>&#10;        <g
   class="Group"
   id="g35">&#10;         <g
   class="com.sun.star.drawing.PolyPolygonShape"
   id="g32">&#10;          <g
   id="id12">&#10;           <rect
   class="BoundingBox"
   stroke="none"
   fill="none"
   x="12345"
   y="15355"
   width="575"
   height="1413"
   id="rect31" />&#10;           <path
   fill="#1b1918"
   stroke="none"
   d="m 12347,16762 251,-1400 319,-5 -254,1408 z"
   id="path31" />&#10;           <path
   fill="none"
   stroke="#1b1918"
   stroke-width="3"
   stroke-linejoin="miter"
   d="m 12347,16762 251,-1400 319,-5 -254,1408 z"
   id="path32" />&#10;          </g>&#10;         </g>&#10;         <g
   class="com.sun.star.drawing.PolyPolygonShape"
   id="g34">&#10;          <g
   id="id13">&#10;           <rect
   class="BoundingBox"
   stroke="none"
   fill="none"
   x="12645"
   y="14761"
   width="386"
   height="329"
   id="rect32" />&#10;           <path
   fill="#1b1918"
   stroke="none"
   d="m 12651,15080 58,-312 319,-5 -71,324 -308,-5 z"
   id="path33" />&#10;           <path
   fill="none"
   stroke="#1b1918"
   stroke-width="3"
   stroke-linejoin="miter"
   d="m 12651,15080 58,-312 319,-5 -71,324 -308,-5 z"
   id="path34" />&#10;          </g>&#10;         </g>&#10;        </g>&#10;        <g
   class="com.sun.star.drawing.PolyPolygonShape"
   id="g36">&#10;         <g
   id="id14">&#10;          <rect
   class="BoundingBox"
   stroke="none"
   fill="none"
   x="14876"
   y="15332"
   width="1218"
   height="1434"
   id="rect35" />&#10;          <path
   fill="#1b1918"
   stroke="none"
   d="m 14878,16763 195,-1065 3,-3 43,-328 h 316 v 0 l -28,241 v 5 l 79,-104 86,-79 v 0 l 79,-56 91,-35 13,-3 v 3 l 72,-5 71,17 61,36 51,51 33,53 v 3 l 33,111 15,116 -5,117 -10,68 -160,857 h -321 l 168,-913 v 3 l 5,-79 -16,-79 -2,-6 v 0 l -23,-38 -41,-20 -25,-5 v 0 l -56,10 -56,25 -7,8 v 0 l -59,62 -7,7 v 3 l -72,124 -58,133 -36,142 v 5 l -119,618 z"
   id="path35" />&#10;          <path
   fill="none"
   stroke="#1b1918"
   stroke-width="3"
   stroke-linejoin="miter"
   d="m 14878,16763 195,-1065 3,-3 43,-328 h 316 v 0 l -28,241 v 5 l 79,-104 86,-79 v 0 l 79,-56 91,-35 13,-3 v 3 l 72,-5 71,17 61,36 51,51 33,53 v 3 l 33,111 15,116 -5,117 -10,68 -160,857 h -321 l 168,-913 v 3 l 5,-79 -16,-79 -2,-6 v 0 l -23,-38 -41,-20 -25,-5 v 0 l -56,10 -56,25 -7,8 v 0 l -59,62 -7,7 v 3 l -72,124 -58,133 -36,142 v 5 l -119,618 z"
   id="path36" />&#10;         </g>&#10;        </g>&#10;        <g
   class="Group"
   id="g41">&#10;         <g
   class="com.sun.star.drawing.PolyPolygonShape"
   id="g38">&#10;          <g
   id="id15">&#10;           <rect
   class="BoundingBox"
   stroke="none"
   fill="none"
   x="13325"
   y="15307"
   width="1167"
   height="1479"
   id="rect36" />&#10;           <path
   fill="#1b1918"
   stroke="none"
   d="m 13380,16519 v 0 l -36,-132 -17,-135 2,-137 3,-10 h -3 l 25,-164 44,-157 30,-77 h -2 l 58,-106 71,-102 10,-10 v 2 l 82,-71 96,-56 102,-38 110,-17 109,2 18,3 v 0 l 89,20 86,38 72,58 33,28 v 3 l 61,102 40,109 23,112 3,119 -3,15 v 3 l -13,156 -33,152 -45,135 h -3 l -51,101 -63,94 -84,79 -94,66 -107,43 -110,28 -74,8 v 0 l -94,-2 -91,-26 -71,-30 h 2 l -74,-59 -58,-71 -41,-76 z"
   id="path37" />&#10;           <path
   fill="none"
   stroke="#1b1918"
   stroke-width="3"
   stroke-linejoin="miter"
   d="m 13380,16519 v 0 l -36,-132 -17,-135 2,-137 3,-10 h -3 l 25,-164 44,-157 30,-77 h -2 l 58,-106 71,-102 10,-10 v 2 l 82,-71 96,-56 102,-38 110,-17 109,2 18,3 v 0 l 89,20 86,38 72,58 33,28 v 3 l 61,102 40,109 23,112 3,119 -3,15 v 3 l -13,156 -33,152 -45,135 h -3 l -51,101 -63,94 -84,79 -94,66 -107,43 -110,28 -74,8 v 0 l -94,-2 -91,-26 -71,-30 h 2 l -74,-59 -58,-71 -41,-76 z"
   id="path38" />&#10;          </g>&#10;         </g>&#10;         <g
   class="com.sun.star.drawing.PolyPolygonShape"
   id="g40">&#10;          <g
   id="id16">&#10;           <rect
   class="BoundingBox"
   stroke="none"
   fill="none"
   x="13631"
   y="15547"
   width="547"
   height="1007"
   id="rect38" />&#10;           <path
   fill="#ffec00"
   stroke="none"
   d="m 13663,16449 v 0 l 36,48 48,36 56,18 61,-6 35,-12 v 0 l 65,-36 56,-53 38,-64 2,3 61,-165 38,-172 8,-63 v 0 l 8,-119 -11,-120 -17,-76 v -3 l -28,-50 -43,-39 -56,-22 -59,-5 -2,2 v 0 l -67,13 -61,33 -46,46 -25,45 h 2 l -63,145 -44,152 -20,159 -2,102 v 2 l 10,112 23,89 z"
   id="path39" />&#10;           <path
   fill="none"
   stroke="#1b1918"
   stroke-width="3"
   stroke-linejoin="miter"
   d="m 13663,16449 v 0 l 36,48 48,36 56,18 61,-6 35,-12 v 0 l 65,-36 56,-53 38,-64 2,3 61,-165 38,-172 8,-63 v 0 l 8,-119 -11,-120 -17,-76 v -3 l -28,-50 -43,-39 -56,-22 -59,-5 -2,2 v 0 l -67,13 -61,33 -46,46 -25,45 h 2 l -63,145 -44,152 -20,159 -2,102 v 2 l 10,112 23,89 z"
   id="path40" />&#10;          </g>&#10;         </g>&#10;        </g>&#10;        <g
   class="com.sun.star.drawing.PolyPolygonShape"
   id="g42">&#10;         <g
   id="id17">&#10;          <rect
   class="BoundingBox"
   stroke="none"
   fill="none"
   x="11287"
   y="14958"
   width="817"
   height="1811"
   id="rect41" />&#10;          <path
   fill="#1b1918"
   stroke="none"
   d="m 11871,16718 h -2 l -102,33 -61,10 3,3 -84,2 -79,-20 -75,-36 -5,-2 v 0 l -53,-51 -38,-61 -20,-68 -3,-31 h 3 l 5,-170 2,-32 125,-719 -198,-2 43,-243 201,-2 54,-252 334,-116 -65,365 245,5 -51,245 h -242 l -132,743 v 0 l -3,81 3,26 v -3 l 15,36 33,23 28,5 h -3 l 125,-15 47,-11 z"
   id="path41" />&#10;          <path
   fill="none"
   stroke="#1b1918"
   stroke-width="3"
   stroke-linejoin="miter"
   d="m 11871,16718 h -2 l -102,33 -61,10 3,3 -84,2 -79,-20 -75,-36 -5,-2 v 0 l -53,-51 -38,-61 -20,-68 -3,-31 h 3 l 5,-170 2,-32 125,-719 -198,-2 43,-243 201,-2 54,-252 334,-116 -65,365 245,5 -51,245 h -242 l -132,743 v 0 l -3,81 3,26 v -3 l 15,36 33,23 28,5 h -3 l 125,-15 47,-11 z"
   id="path42" />&#10;         </g>&#10;        </g>&#10;        <g
   class="com.sun.star.drawing.PolyPolygonShape"
   id="g44">&#10;         <g
   id="id18">&#10;          <rect
   class="BoundingBox"
   stroke="none"
   fill="none"
   x="7450"
   y="15360"
   width="1176"
   height="1406"
   id="rect42" />&#10;          <path
   fill="#1b1918"
   stroke="none"
   d="m 7584,16763 -132,-1401 316,2 45,1140 480,-1135 329,3 -684,1391 z"
   id="path43" />&#10;          <path
   fill="none"
   stroke="#1b1918"
   stroke-width="3"
   stroke-linejoin="miter"
   d="m 7584,16763 -132,-1401 316,2 45,1140 480,-1135 329,3 -684,1391 z"
   id="path44" />&#10;         </g>&#10;        </g>&#10;        <g
   class="Group"
   id="g49">&#10;         <g
   class="com.sun.star.drawing.PolyPolygonShape"
   id="g46">&#10;          <g
   id="id19">&#10;           <rect
   class="BoundingBox"
   stroke="none"
   fill="none"
   x="3933"
   y="14758"
   width="1637"
   height="2004"
   id="rect44" />&#10;           <path
   fill="#1b1918"
   stroke="none"
   d="m 3935,16760 365,-2000 652,2 v 0 l 139,10 34,5 h 2 l 97,26 89,48 53,41 v 0 l 61,66 43,73 v 3 l 46,122 v 0 l 35,137 16,142 -5,140 -11,58 v -2 l -61,293 -40,153 v 0 l -51,144 -69,135 -56,86 v 0 l -89,105 -99,86 -43,30 v 0 l -94,49 -104,33 -105,12 -74,-2 -731,2 z"
   id="path45" />&#10;           <path
   fill="none"
   stroke="#1b1918"
   stroke-width="3"
   stroke-linejoin="miter"
   d="m 3935,16760 365,-2000 652,2 v 0 l 139,10 34,5 h 2 l 97,26 89,48 53,41 v 0 l 61,66 43,73 v 3 l 46,122 v 0 l 35,137 16,142 -5,140 -11,58 v -2 l -61,293 -40,153 v 0 l -51,144 -69,135 -56,86 v 0 l -89,105 -99,86 -43,30 v 0 l -94,49 -104,33 -105,12 -74,-2 -731,2 z"
   id="path46" />&#10;          </g>&#10;         </g>&#10;         <g
   class="com.sun.star.drawing.PolyPolygonShape"
   id="g48">&#10;          <g
   id="id20">&#10;           <rect
   class="BoundingBox"
   stroke="none"
   fill="none"
   x="4327"
   y="15070"
   width="900"
   height="1375"
   id="rect46" />&#10;           <path
   fill="#ffec00"
   stroke="none"
   d="m 4329,16442 h 350 v 0 l 84,-13 77,-28 56,-35 v 0 l 79,-77 63,-86 10,-15 v 2 l 67,-142 45,-142 v 0 l 41,-192 20,-195 3,-117 v 0 l -10,-94 -31,-87 -13,-22 h -2 l -43,-59 -54,-38 -68,-25 -51,-5 h -372 z"
   id="path47" />&#10;           <path
   fill="none"
   stroke="#1b1918"
   stroke-width="3"
   stroke-linejoin="miter"
   d="m 4329,16442 h 350 v 0 l 84,-13 77,-28 56,-35 v 0 l 79,-77 63,-86 10,-15 v 2 l 67,-142 45,-142 v 0 l 41,-192 20,-195 3,-117 v 0 l -10,-94 -31,-87 -13,-22 h -2 l -43,-59 -54,-38 -68,-25 -51,-5 h -372 z"
   id="path48" />&#10;          </g>&#10;         </g>&#10;        </g>&#10;       </g>&#10;       <g
   class="Group"
   id="g67">&#10;        <g
   class="com.sun.star.drawing.PolyPolygonShape"
   id="g51">&#10;         <g
   id="id21">&#10;          <rect
   class="BoundingBox"
   stroke="none"
   fill="none"
   x="5937"
   y="11743"
   width="1413"
   height="2000"
   id="rect50" />&#10;          <path
   fill="#1b1918"
   stroke="none"
   d="m 5939,13740 373,-1995 h 1035 l -59,309 h -694 l -99,537 656,3 -61,307 -654,5 -160,834 z"
   id="path50" />&#10;          <path
   fill="none"
   stroke="#1b1918"
   stroke-width="3"
   stroke-linejoin="miter"
   d="m 5939,13740 373,-1995 h 1035 l -59,309 h -694 l -99,537 656,3 -61,307 -654,5 -160,834 z"
   id="path51" />&#10;         </g>&#10;        </g>&#10;        <g
   class="com.sun.star.drawing.PolyPolygonShape"
   id="g53">&#10;         <g
   id="id22">&#10;          <rect
   class="BoundingBox"
   stroke="none"
   fill="none"
   x="7567"
   y="12342"
   width="570"
   height="1403"
   id="rect51" />&#10;          <path
   fill="#1b1918"
   stroke="none"
   d="m 7569,13740 252,-1396 h 313 l -260,1398 z"
   id="path52" />&#10;          <path
   fill="none"
   stroke="#1b1918"
   stroke-width="3"
   stroke-linejoin="miter"
   d="m 7569,13740 252,-1396 h 313 l -260,1398 z"
   id="path53" />&#10;         </g>&#10;        </g>&#10;        <g
   class="com.sun.star.drawing.PolyPolygonShape"
   id="g55">&#10;         <g
   id="id23">&#10;          <rect
   class="BoundingBox"
   stroke="none"
   fill="none"
   x="7869"
   y="11740"
   width="384"
   height="318"
   id="rect53" />&#10;          <path
   fill="#1b1918"
   stroke="none"
   d="m 7937,11742 h 313 l -71,313 h -308 z"
   id="path54" />&#10;          <path
   fill="none"
   stroke="#1b1918"
   stroke-width="3"
   stroke-linejoin="miter"
   d="m 7937,11742 h 313 l -71,313 h -308 z"
   id="path55" />&#10;         </g>&#10;        </g>&#10;        <g
   class="com.sun.star.drawing.PolyPolygonShape"
   id="g57">&#10;         <g
   id="id24">&#10;          <rect
   class="BoundingBox"
   stroke="none"
   fill="none"
   x="8537"
   y="12309"
   width="1218"
   height="1433"
   id="rect55" />&#10;          <path
   fill="#1b1918"
   stroke="none"
   d="m 8539,13739 195,-1065 3,-3 43,-327 h 316 v 0 l -28,241 v 5 l 79,-104 86,-79 v 0 l 79,-56 91,-35 13,-3 v 3 l 72,-5 71,17 61,36 51,51 33,53 v 3 l 33,111 15,115 -5,116 -10,69 -160,857 h -321 l 167,-913 v 3 l 6,-79 -16,-79 -2,-5 v 0 l -23,-38 -41,-20 -25,-5 v 0 l -56,10 -56,25 -8,8 v 0 l -58,61 -8,7 v 3 l -71,124 -58,132 -36,144 v 5 l -119,617 z"
   id="path56" />&#10;          <path
   fill="none"
   stroke="#1b1918"
   stroke-width="3"
   stroke-linejoin="miter"
   d="m 8539,13739 195,-1065 3,-3 43,-327 h 316 v 0 l -28,241 v 5 l 79,-104 86,-79 v 0 l 79,-56 91,-35 13,-3 v 3 l 72,-5 71,17 61,36 51,51 33,53 v 3 l 33,111 15,115 -5,116 -10,69 -160,857 h -321 l 167,-913 v 3 l 6,-79 -16,-79 -2,-5 v 0 l -23,-38 -41,-20 -25,-5 v 0 l -56,10 -56,25 -8,8 v 0 l -58,61 -8,7 v 3 l -71,124 -58,132 -36,144 v 5 l -119,617 z"
   id="path57" />&#10;         </g>&#10;        </g>&#10;        <g
   class="Group"
   id="g62">&#10;         <g
   class="com.sun.star.drawing.PolyPolygonShape"
   id="g59">&#10;          <g
   id="id25">&#10;           <rect
   class="BoundingBox"
   stroke="none"
   fill="none"
   x="12932"
   y="12297"
   width="1159"
   height="1461"
   id="rect57" />&#10;           <path
   fill="#1b1918"
   stroke="none"
   d="m 13658,13288 341,10 -3,2 -45,115 -64,111 -74,89 v 0 l -71,61 -84,41 -88,25 -21,3 v 0 l -115,10 -119,-10 -112,-31 -13,-5 v 3 l -76,-41 -64,-58 -50,-74 -18,-36 v -2 l -33,-125 -15,-124 5,-127 10,-64 v 0 l 35,-171 59,-160 48,-104 h 3 l 63,-99 81,-89 13,-10 -3,-3 89,-55 99,-44 106,-22 58,-5 v 0 l 109,2 107,23 35,13 v 0 l 77,40 61,56 50,71 31,79 2,18 v 0 l 16,129 -3,122 h 3 l -23,184 -21,99 -785,-13 v 3 l -16,112 5,114 3,15 h 3 l 20,61 23,33 h -3 l 41,38 56,23 h 58 l 53,-18 40,-30 v 3 l 61,-69 40,-79 13,-40 z"
   id="path58" />&#10;           <path
   fill="none"
   stroke="#1b1918"
   stroke-width="3"
   stroke-linejoin="miter"
   d="m 13658,13288 341,10 -3,2 -45,115 -64,111 -74,89 v 0 l -71,61 -84,41 -88,25 -21,3 v 0 l -115,10 -119,-10 -112,-31 -13,-5 v 3 l -76,-41 -64,-58 -50,-74 -18,-36 v -2 l -33,-125 -15,-124 5,-127 10,-64 v 0 l 35,-171 59,-160 48,-104 h 3 l 63,-99 81,-89 13,-10 -3,-3 89,-55 99,-44 106,-22 58,-5 v 0 l 109,2 107,23 35,13 v 0 l 77,40 61,56 50,71 31,79 2,18 v 0 l 16,129 -3,122 h 3 l -23,184 -21,99 -785,-13 v 3 l -16,112 5,114 3,15 h 3 l 20,61 23,33 h -3 l 41,38 56,23 h 58 l 53,-18 40,-30 v 3 l 61,-69 40,-79 13,-40 z"
   id="path59" />&#10;          </g>&#10;         </g>&#10;         <g
   class="com.sun.star.drawing.PolyPolygonShape"
   id="g61">&#10;          <g
   id="id26">&#10;           <rect
   class="BoundingBox"
   stroke="none"
   fill="none"
   x="13317"
   y="12515"
   width="459"
   height="359"
   id="rect59" />&#10;           <path
   fill="#ffec00"
   stroke="none"
   d="m 13760,12871 13,-92 v -90 l -23,-89 -3,-7 v 2 l -38,-40 -48,-28 -53,-10 -36,5 v 0 l -67,22 -53,39 -44,55 -7,13 h 2 l -63,146 -20,66 z"
   id="path60" />&#10;           <path
   fill="none"
   stroke="#1b1918"
   stroke-width="3"
   stroke-linejoin="miter"
   d="m 13760,12871 13,-92 v -90 l -23,-89 -3,-7 v 2 l -38,-40 -48,-28 -53,-10 -36,5 v 0 l -67,22 -53,39 -44,55 -7,13 h 2 l -63,146 -20,66 z"
   id="path61" />&#10;          </g>&#10;         </g>&#10;        </g>&#10;        <g
   class="Group"
   id="g66">&#10;         <g
   class="com.sun.star.drawing.PolyPolygonShape"
   id="g63">&#10;          <g
   id="id27">&#10;           <rect
   class="BoundingBox"
   stroke="none"
   fill="none"
   x="11293"
   y="11740"
   width="1370"
   height="2033"
   id="rect62" />&#10;           <path
   fill="#1b1918"
   stroke="none"
   d="m 12004,13560 v 0 l -61,78 -71,64 -23,15 h -2 l -74,36 -81,17 h -60 v 0 l -71,-15 -68,-35 -54,-49 -15,-20 v 0 l -58,-104 -41,-107 -18,-71 -2,3 -10,-151 5,-150 22,-145 49,-140 63,-134 23,-38 v 0 l 79,-110 94,-96 67,-53 v 2 l 68,-40 77,-21 h 78 l 74,21 30,12 v 0 l 74,51 56,64 41,66 151,-768 314,7 -379,1988 h -312 z"
   id="path62" />&#10;           <path
   fill="none"
   stroke="#1b1918"
   stroke-width="3"
   stroke-linejoin="miter"
   d="m 12004,13560 v 0 l -61,78 -71,64 -23,15 h -2 l -74,36 -81,17 h -60 v 0 l -71,-15 -68,-35 -54,-49 -15,-20 v 0 l -58,-104 -41,-107 -18,-71 -2,3 -10,-151 5,-150 22,-145 49,-140 63,-134 23,-38 v 0 l 79,-110 94,-96 67,-53 v 2 l 68,-40 77,-21 h 78 l 74,21 30,12 v 0 l 74,51 56,64 41,66 151,-768 314,7 -379,1988 h -312 z"
   id="path63" />&#10;          </g>&#10;         </g>&#10;         <g
   class="com.sun.star.drawing.PolyPolygonShape"
   id="g65">&#10;          <g
   id="id28">&#10;           <rect
   class="BoundingBox"
   stroke="none"
   fill="none"
   x="11616"
   y="12538"
   width="522"
   height="976"
   id="rect63" />&#10;           <path
   fill="#ffec00"
   stroke="none"
   d="m 11964,13412 2,2 60,-94 38,-91 v 0 l 43,-168 23,-168 5,-125 v 3 l -10,-74 -25,-71 -23,-33 -3,-3 -40,-33 -52,-17 h -51 l -51,22 -25,18 2,3 -86,109 -20,33 -3,-3 -62,115 -43,122 -23,130 -2,130 5,76 v 0 l 20,86 33,64 h -3 l 38,38 47,25 51,3 43,-10 v 0 l 66,-41 z"
   id="path64" />&#10;           <path
   fill="none"
   stroke="#1b1918"
   stroke-width="3"
   stroke-linejoin="miter"
   d="m 11964,13412 2,2 60,-94 38,-91 v 0 l 43,-168 23,-168 5,-125 v 3 l -10,-74 -25,-71 -23,-33 -3,-3 -40,-33 -52,-17 h -51 l -51,22 -25,18 2,3 -86,109 -20,33 -3,-3 -62,115 -43,122 -23,130 -2,130 5,76 v 0 l 20,86 33,64 h -3 l 38,38 47,25 51,3 43,-10 v 0 l 66,-41 z"
   id="path65" />&#10;          </g>&#10;         </g>&#10;        </g>&#10;       </g>&#10;      </g>&#10;     </g>&#10;    </g>&#10;   </g>&#10;  </g>&#10; </g>&#10;</svg>
