<?xml version="1.0" encoding="UTF-8" standalone="no"?>
<!-- Created with Inkscape (http://www.inkscape.org/) -->

<svg
   xmlns:dc="http://purl.org/dc/elements/1.1/"
   xmlns:cc="http://creativecommons.org/ns#"
   xmlns:rdf="http://www.w3.org/1999/02/22-rdf-syntax-ns#"
   xmlns:svg="http://www.w3.org/2000/svg"
   xmlns="http://www.w3.org/2000/svg"
   xmlns:sodipodi="http://sodipodi.sourceforge.net/DTD/sodipodi-0.dtd"
   xmlns:inkscape="http://www.inkscape.org/namespaces/inkscape"
   width="116"
   height="38"
   id="svg3769"
   version="1.1"
   inkscape:version="0.48.4 r9939"
   sodipodi:docname="KM9 inondée.svg">
  <defs
     id="defs3771" />
  <sodipodi:namedview
     id="base"
     pagecolor="#ffffff"
     bordercolor="#666666"
     borderopacity="1.0"
     inkscape:pageopacity="0.0"
     inkscape:pageshadow="2"
     inkscape:zoom="7.9195959"
     inkscape:cx="75.011357"
     inkscape:cy="13.113104"
     inkscape:document-units="mm"
     inkscape:current-layer="layer2"
     showgrid="false"
     inkscape:snap-bbox="true"
     inkscape:bbox-paths="true"
     inkscape:bbox-nodes="true"
     inkscape:snap-bbox-edge-midpoints="true"
     inkscape:snap-bbox-midpoints="true"
     inkscape:object-paths="true"
     inkscape:snap-intersection-paths="true"
     inkscape:object-nodes="true"
     inkscape:snap-smooth-nodes="true"
     inkscape:snap-midpoints="true"
     inkscape:snap-object-midpoints="true"
     inkscape:snap-center="true"
     inkscape:snap-page="true"
     showguides="true"
     inkscape:guide-bbox="true"
     units="mm"
     inkscape:window-width="1366"
     inkscape:window-height="745"
     inkscape:window-x="-8"
     inkscape:window-y="-8"
     inkscape:window-maximized="1">
    <sodipodi:guide
       orientation="1,0"
       position="57.96822,37.9439"
       id="guide3879" />
  </sodipodi:namedview>
  <metadata
     id="metadata3774">
    <rdf:RDF>
      <cc:Work
         rdf:about="">
        <dc:format>image/svg+xml</dc:format>
        <dc:type
           rdf:resource="http://purl.org/dc/dcmitype/StillImage" />
        <dc:title></dc:title>
      </cc:Work>
    </rdf:RDF>
  </metadata>
  <g
     inkscape:label="Calque 1"
     inkscape:groupmode="layer"
     id="layer1"
     transform="translate(0,-1014.3622)"
     sodipodi:insensitive="true">
    <path
       style="fill:#f9ba11;fill-opacity:1;fill-rule:nonzero;stroke:#000000;stroke-opacity:1"
       d="m 5.1452599,1014.9183 105.6459201,0 c 2.57347,0 4.64526,1.9069 4.64526,4.2755 l 0,28.3929 c 0,2.3686 -2.07179,4.2755 -4.64526,4.2755 l -105.6459201,0 C 2.5717859,1051.8622 0.5,1049.9553 0.5,1047.5867 l 0,-28.3929 c 0,-2.3686 2.0717859,-4.2755 4.6452599,-4.2755 z"
       id="rect2999"
       inkscape:connector-curvature="0" />
  </g>
  <g
     inkscape:groupmode="layer"
     id="layer2"
     inkscape:label="Calque">
    <g
       id="g4746"
       transform="translate(-4.5743465e-7,0.22094894)">
      <g
         style="font-size:26.13339806px;font-style:normal;font-weight:normal;text-align:center;line-height:125%;letter-spacing:0px;word-spacing:0px;text-anchor:middle;fill:#000000;fill-opacity:1;stroke:none;font-family:Sans"
         id="text2987">
        <path
           d="m 10.68438,23.409753 c 0.612496,0.07232 1.132484,0.316894 1.559964,0.733726 0.427469,0.41685 0.73691,0.910253 0.928323,1.480212 0.08932,0.250962 0.155245,0.580607 0.197787,0.988935 l 0,2.871101 c -0.06381,0.969796 -0.368996,1.752436 -0.915562,2.347922 -0.546578,0.595488 -1.211184,0.912372 -1.99382,0.950654 l -3.7005303,0 0.00638,-9.37255 z m -2.092714,7.528665 1.492972,0 c 0.301994,-0.04679 0.559329,-0.15844 0.772008,-0.334962 0.212669,-0.176517 0.393442,-0.485958 0.542319,-0.928323 0.08081,-0.272219 0.104205,-1.26328 0.07018,-2.973184 -0.199918,-0.884717 -0.661421,-1.393008 -1.384509,-1.524874 l -1.492972,0 z"
           style="font-size:13.06669903px;font-variant:normal;font-stretch:normal;font-family:Caracteres L1;-inkscape-font-specification:Caracteres L1"
           id="path4753" />
        <path
           d="m 23.751079,23.448035 0,1.7099 -3.866416,0 0,2.041671 2.83282,0 0,1.729041 -2.83282,0 0,2.137375 4.032302,0 0,1.729041 -5.831525,0 0.0064,-9.347028 z"
           style="font-size:13.06669903px;font-variant:normal;font-stretch:normal;font-family:Caracteres L1;-inkscape-font-specification:Caracteres L1"
           id="path4755" />
        <path
           d="m 40.524688,23.32681 c 1.237758,0.212684 2.048045,0.950662 2.430865,2.213938 l 0.05742,0.312631 -1.614197,0.338152 c -0.131863,-0.544439 -0.357297,-0.905984 -0.676303,-1.084638 -0.319016,-0.178638 -0.693322,-0.161625 -1.12292,0.05104 -0.284986,0.242456 -0.522118,0.574227 -0.711395,0.995315 -0.189282,0.421101 -0.313696,0.991067 -0.373243,1.7099 -0.02552,0.765631 0.07443,1.430237 0.299871,1.99382 0.225431,0.563589 0.498717,0.936831 0.819858,1.119729 0.321135,0.182902 0.649716,0.208422 0.985745,0.07656 0.336021,-0.08507 0.60399,-0.431726 0.803908,-1.039977 l 1.614197,0.497658 c -0.216934,0.854951 -0.635902,1.473832 -1.256904,1.856645 -0.455128,0.289237 -0.991066,0.452996 -1.607817,0.491277 -1.161203,-0.02552 -2.028913,-0.499784 -2.603131,-1.42279 -0.603995,-1.003819 -0.914499,-2.090583 -0.931513,-3.260294 0.0085,-1.463192 0.323264,-2.660546 0.944273,-3.592066 0.391319,-0.514663 0.829427,-0.869829 1.314327,-1.065498 0.365796,-0.144609 0.763496,-0.216918 1.193101,-0.216927 0.140361,9e-6 0.28498,0.0085 0.433856,0.02552 z"
           style="font-size:13.06669903px;font-variant:normal;font-stretch:normal;font-family:Caracteres L1;-inkscape-font-specification:Caracteres L1"
           id="path4757" />
        <path
           d="m 52.117556,23.428894 2.411724,9.347028 -1.831124,0 -0.401954,-1.588675 -2.583991,0 -0.408334,1.588675 -1.850265,0 2.386204,-9.347028 z m -2.054432,5.97827 1.843884,0 -0.893231,-3.649488 z"
           style="font-size:13.06669903px;font-variant:normal;font-stretch:normal;font-family:Caracteres L1;-inkscape-font-specification:Caracteres L1"
           id="path4759" />
        <path
           d="m 59.371868,23.428894 2.405344,0 1.882166,4.957434 1.926828,-4.957434 2.398964,0 0,9.366169 -1.780082,0 0,-5.914468 -2.328782,5.914468 -0.465756,0 -2.309642,-5.863426 0.01914,5.863426 -1.748181,0 z"
           style="font-size:13.06669903px;font-variant:normal;font-stretch:normal;font-family:Caracteres L1;-inkscape-font-specification:Caracteres L1"
           id="path4761" />
        <path
           d="m 74.933235,23.441654 0,9.353409 -1.773703,0 0,-9.353409 z"
           style="font-size:13.06669903px;font-variant:normal;font-stretch:normal;font-family:Caracteres L1;-inkscape-font-specification:Caracteres L1"
           id="path4763" />
        <path
           d="m 83.788989,23.32681 c 1.029338,0.157389 1.79071,0.765636 2.28412,1.824745 0.421088,0.782647 0.631635,1.743933 0.631643,2.883861 l 0,0.114844 c -8e-6,1.42492 -0.346666,2.637161 -1.039977,3.636728 -0.49341,0.67205 -1.19098,1.048483 -2.092713,1.129299 -0.09358,0.0085 -0.185031,0.01276 -0.27435,0.01276 -0.935769,0 -1.720536,-0.395574 -2.354303,-1.186722 -0.655037,-1.054862 -0.986808,-2.137372 -0.995315,-3.247534 -0.0043,-0.09357 -0.0064,-0.187149 -0.0064,-0.28073 0,-1.501473 0.333898,-2.743489 1.001695,-3.726051 0.446614,-0.53593 0.91237,-0.878335 1.397269,-1.027216 0.336022,-0.106328 0.672047,-0.159496 1.008076,-0.159505 0.148868,9e-6 0.295613,0.0085 0.440235,0.02552 z m -0.491277,7.9689 c 0.4934,-0.02552 0.910241,-0.363671 1.250524,-1.014455 0.246697,-0.433853 0.401949,-1.071874 0.465756,-1.914068 0.01275,-1.071872 -0.176525,-1.950215 -0.56784,-2.635032 -0.319016,-0.476383 -0.672054,-0.742225 -1.059117,-0.797528 -0.510421,0.02553 -0.935769,0.359427 -1.276045,1.001695 -0.242451,0.450876 -0.399829,1.097404 -0.472136,1.939588 -0.0085,1.071882 0.185024,1.948098 0.5806,2.628653 0.314755,0.476391 0.674174,0.740107 1.078258,0.791147 z"
           style="font-size:13.06669903px;font-variant:normal;font-stretch:normal;font-family:Caracteres L1;-inkscape-font-specification:Caracteres L1"
           id="path4765" />
        <path
           d="m 93.844223,23.428894 2.347922,4.989335 0,-4.989335 1.735421,0 0.0064,9.366169 -1.703519,0 -2.851961,-5.901707 -0.0064,5.908087 -1.754561,0 0,-9.372549 z"
           style="font-size:13.06669903px;font-variant:normal;font-stretch:normal;font-family:Caracteres L1;-inkscape-font-specification:Caracteres L1"
           id="path4767" />
        <path
           d="m 102.76377,30.887376 0,-0.01276 c 0,-0.04679 0.0489,-0.07869 0.14675,-0.0957 0.75286,-0.242446 1.24201,-0.416839 1.46745,-0.523178 0.11484,0.157381 0.26584,0.299873 0.453,0.427475 0.30199,0.178648 0.62526,0.287112 0.96979,0.325391 0.3658,0.0085 0.59336,2e-6 0.68268,-0.02552 0.42109,-0.119095 0.68056,-0.240319 0.77839,-0.363672 0.0978,-0.08507 0.1829,-0.291362 0.25521,-0.618882 0.017,-0.127602 0,-0.270093 -0.051,-0.427475 -0.0638,-0.106334 -0.13186,-0.195657 -0.20417,-0.26797 l -0.21693,-0.165885 -0.24244,-0.108464 c -1.34836,-0.421091 -2.09059,-0.667793 -2.2267,-0.740106 -0.62527,-0.250951 -1.09102,-0.665665 -1.39727,-1.244144 -0.19992,-0.387061 -0.28924,-0.85707 -0.26797,-1.410029 0.0808,-0.689057 0.36367,-1.235629 0.84857,-1.639718 0.54444,-0.395565 1.11228,-0.610365 1.70352,-0.644403 l 0.16588,0 c 0.4211,10e-6 0.76988,0.03191 1.04636,0.0957 0.56146,0.157388 0.99956,0.376442 1.31433,0.657163 0.31475,0.259471 0.57421,0.612509 0.77838,1.059117 l -0.0191,0.07018 -1.31432,0.631643 -0.0638,-0.0319 c -0.0808,-0.259455 -0.30839,-0.470002 -0.68269,-0.631642 -0.4211,-0.157371 -0.9145,-0.161624 -1.48021,-0.01276 -0.24245,0.08082 -0.41259,0.185034 -0.51042,0.312631 -0.034,0.03403 -0.0787,0.140372 -0.13398,0.319011 -0.009,0.208427 0,0.329652 0.0255,0.363673 0.0553,0.144625 0.16588,0.274356 0.33177,0.389193 l 0.16589,0.07018 c 1.20798,0.357298 2.02678,0.61676 2.45638,0.778387 0.37005,0.170145 0.65291,0.357298 0.84857,0.56146 l 0.35729,0.484897 c 0.26371,0.438113 0.40408,0.916629 0.4211,1.43555 0.004,0.03403 0.006,0.07444 0.006,0.121225 -1e-5,0.165888 -0.0255,0.389196 -0.0766,0.669923 -0.10635,0.395576 -0.23395,0.686939 -0.38282,0.874091 -0.25521,0.314759 -0.44024,0.504038 -0.55508,0.56784 -0.62526,0.429602 -1.26967,0.661416 -1.9332,0.695444 l -0.5806,0 c -0.43386,-0.04253 -0.79966,-0.127604 -1.0974,-0.255209 -0.4764,-0.22118 -0.86133,-0.467882 -1.15482,-0.740106 -0.24245,-0.22118 -0.453,-0.538064 -0.63165,-0.950653 z"
           style="font-size:13.06669903px;font-variant:normal;font-stretch:normal;font-family:Caracteres L1;-inkscape-font-specification:Caracteres L1"
           id="path4769" />
      </g>
      <g
         style="font-size:27.43751717px;font-style:normal;font-weight:normal;text-align:center;line-height:125%;letter-spacing:0px;word-spacing:0px;text-anchor:middle;fill:#000000;fill-opacity:1;stroke:none;font-family:Sans"
         id="text2987-1">
        <path
           d="m 28.192887,12.649805 0,-0.0134 c -10e-7,-0.04912 0.05136,-0.08261 0.154068,-0.10048 0.790435,-0.254545 1.303995,-0.43764 1.540681,-0.549286 0.120573,0.165235 0.279106,0.314837 0.475601,0.448807 0.317065,0.187563 0.656461,0.30144 1.018189,0.341629 0.38405,0.0089 0.622967,2e-6 0.716752,-0.02679 0.442104,-0.125039 0.714514,-0.252312 0.817231,-0.381821 0.102707,-0.08931 0.192021,-0.305901 0.267944,-0.649765 0.01786,-0.13397 -5e-6,-0.283572 -0.05359,-0.448807 -0.06699,-0.11164 -0.138443,-0.205421 -0.214355,-0.281342 L 32.687656,10.814385 32.433109,10.700509 C 31.017465,10.258404 30.238194,9.9993917 30.095293,9.9234694 29.438827,9.6599957 28.949829,9.2245863 28.628297,8.61724 28.418406,8.2108639 28.324626,7.7174 28.346955,7.1368466 28.431803,6.4134047 28.728775,5.8395575 29.23787,5.4153032 29.809483,4.9999988 30.405659,4.7744791 31.0264,4.7387433 l 0.174164,0 c 0.442104,9.9e-6 0.808295,0.033503 1.098572,0.1004792 0.589473,0.1652421 1.049444,0.3952276 1.379915,0.6899571 0.330458,0.2724191 0.602868,0.6430753 0.81723,1.1119697 l -0.0201,0.073685 -1.379914,0.6631627 -0.06699,-0.033493 C 32.944431,7.0721009 32.705514,6.8510469 32.312534,6.681341 31.870421,6.5161166 31.352396,6.5116509 30.758455,6.6679437 c -0.25455,0.084857 -0.433179,0.1942676 -0.535889,0.328232 -0.03573,0.035734 -0.08262,0.147377 -0.14067,0.3349307 -0.0089,0.2188284 -3e-6,0.3461019 0.02679,0.3818209 0.05805,0.151842 0.174161,0.288047 0.348328,0.4086154 l 0.174164,0.073685 c 1.268266,0.3751284 2.127921,0.6475384 2.578966,0.8172307 0.388513,0.1786352 0.685485,0.3751276 0.890915,0.5894779 l 0.375122,0.509095 c 0.276869,0.459975 0.424239,0.962371 0.442109,1.507187 0.0045,0.03573 0.0067,0.07815 0.0067,0.127274 -7e-6,0.174167 -0.0268,0.408618 -0.08038,0.703354 -0.11165,0.415316 -0.245622,0.721219 -0.401917,0.91771 -0.26795,0.330466 -0.46221,0.529191 -0.582779,0.596177 -0.656469,0.45104 -1.333029,0.694423 -2.02968,0.730149 l -0.609573,0 c -0.455509,-0.04466 -0.839562,-0.133973 -1.152162,-0.267945 -0.500164,-0.232218 -0.904314,-0.491231 -1.212449,-0.777039 -0.254548,-0.232217 -0.475602,-0.564915 -0.663162,-0.998093 z"
           style="font-size:13.71875858px;font-variant:normal;font-stretch:normal;font-family:Caracteres L1;-inkscape-font-specification:Caracteres L1"
           id="path4772" />
        <path
           d="m 43.907832,4.7119489 c 1.080704,0.1652422 1.880071,0.8038426 2.398104,1.9158032 0.442101,0.8217036 0.663155,1.8309603 0.663162,3.0277728 l 0,0.1205751 c -7e-6,1.496027 -0.363965,2.768762 -1.091874,3.818209 -0.518032,0.705588 -1.250412,1.100805 -2.197145,1.185655 -0.09825,0.0089 -0.194263,0.0134 -0.28804,0.0134 -0.982466,0 -1.806395,-0.415314 -2.471788,-1.245942 -0.687725,-1.107502 -1.036052,-2.244032 -1.044983,-3.409594 -0.0045,-0.09824 -0.0067,-0.1964879 -0.0067,-0.2947389 -10e-7,-1.5764004 0.35056,-2.8803957 1.051682,-3.9119898 0.468901,-0.5626741 0.957899,-0.922166 1.466996,-1.0784766 0.352791,-0.1116336 0.705584,-0.1674553 1.058381,-0.1674653 0.156297,10e-6 0.310365,0.00894 0.462204,0.026795 z m -0.515793,8.3665671 c 0.518022,-0.02679 0.955664,-0.381819 1.312928,-1.065079 0.259008,-0.455503 0.422007,-1.125364 0.488999,-2.009584 C 45.207357,8.8784917 45.008632,7.9563169 44.597789,7.2373258 44.262854,6.7371706 43.892198,6.4580621 43.48582,6.3999992 c -0.535893,0.026803 -0.982467,0.3773631 -1.339723,1.0516822 -0.25455,0.4733754 -0.419782,1.1521674 -0.495697,2.0363782 -0.0089,1.1253714 0.194257,2.0453124 0.609574,2.7598284 0.330461,0.500165 0.707816,0.777041 1.132065,0.830628 z"
           style="font-size:13.71875858px;font-variant:normal;font-stretch:normal;font-family:Caracteres L1;-inkscape-font-specification:Caracteres L1"
           id="path4774" />
        <path
           d="m 55.275378,4.7990308 c 1.031582,9.9e-6 1.837647,0.3706661 2.418199,1.1119697 0.509088,0.6520064 0.763635,1.3866202 0.763642,2.2038435 -7e-6,0.1473759 -0.0089,0.3215397 -0.02679,0.5224918 -0.107184,0.9958655 -0.605114,1.8197942 -1.49379,2.4717882 l 1.634461,3.536867 -2.116761,0 -1.40001,-2.927293 -1.212449,0 0,2.947389 -1.855516,0 0.0067,-9.8670562 z M 55.007433,9.8296889 55.55672,9.7627027 C 55.869317,9.6778586 56.130563,9.501462 56.340457,9.2335123 56.519082,8.9700393 56.62626,8.6552048 56.661991,8.289008 56.679849,7.8335091 56.545876,7.4360585 56.260074,7.0966549 56.018919,6.8197868 55.668359,6.663486 55.208392,6.6277521 l -1.346421,0 0,3.2019368 z"
           style="font-size:13.71875858px;font-variant:normal;font-stretch:normal;font-family:Caracteres L1;-inkscape-font-specification:Caracteres L1"
           id="path4776" />
        <path
           d="m 69.31567,4.8258253 0,1.8890087 -1.962693,0 0,7.937856 -1.822023,0 0,-7.9579518 -2.096665,0 0,-1.8689129 z"
           style="font-size:13.71875858px;font-variant:normal;font-stretch:normal;font-family:Caracteres L1;-inkscape-font-specification:Caracteres L1"
           id="path4778" />
        <path
           d="m 76.382707,4.8325239 0,9.8201661 -1.862214,0 0,-9.8201661 z"
           style="font-size:13.71875858px;font-variant:normal;font-stretch:normal;font-family:Caracteres L1;-inkscape-font-specification:Caracteres L1"
           id="path4780" />
        <path
           d="m 87.56939,4.8392225 0,1.7952282 -4.05936,0 0,2.143556 2.974184,0 0,1.8153243 -2.974184,0 0,2.244035 4.233524,0 0,1.815324 -6.122532,0 0.0067,-9.8134675 z"
           style="font-size:13.71875858px;font-variant:normal;font-stretch:normal;font-family:Caracteres L1;-inkscape-font-specification:Caracteres L1"
           id="path4782" />
      </g>
    </g>
  </g>
</svg>
