<?xml version="1.0" encoding="utf-8"?>
<!-- Generator: Adobe Illustrator 28.3.0, SVG Export Plug-In . SVG Version: 6.00 Build 0)  -->
<svg version="1.1"
	 id="Calque_1" xmlns:rdf="http://www.w3.org/1999/02/22-rdf-syntax-ns#" xmlns:svg="http://www.w3.org/2000/svg" xmlns:cc="http://creativecommons.org/ns#" xmlns:dc="http://purl.org/dc/elements/1.1/" xmlns:inkscape="http://www.inkscape.org/namespaces/inkscape" xmlns:sodipodi="http://sodipodi.sourceforge.net/DTD/sodipodi-0.dtd" inkscape:version="0.48.1 " sodipodi:docname="AJAX.svg"
	 xmlns="http://www.w3.org/2000/svg" xmlns:xlink="http://www.w3.org/1999/xlink" x="0px" y="0px" viewBox="0 0 597 422.5"
	 style="enable-background:new 0 0 597 422.5;" xml:space="preserve">
<style type="text/css">
	.st0{fill:#FDCE00;}
</style>
<sodipodi:namedview  bordercolor="#666666" borderopacity="1" fit-margin-bottom="0" fit-margin-left="0" fit-margin-right="0" fit-margin-top="0" gridtolerance="10" guidetolerance="10" id="namedview25" inkscape:current-layer="g3" inkscape:cx="263.0125" inkscape:cy="211.248" inkscape:pageopacity="0" inkscape:pageshadow="2" inkscape:window-height="1004" inkscape:window-maximized="1" inkscape:window-width="1280" inkscape:window-x="-8" inkscape:window-y="-8" inkscape:zoom="1.2560553" objecttolerance="10" pagecolor="#ffffff" showgrid="false">
	</sodipodi:namedview>
<g id="g3" transform="translate(-144,-86.393009)">
	<path id="path5" inkscape:connector-curvature="0" class="st0" d="M172.3,500.4c-10.9,0-19.8-8.9-19.8-19.8V114.7
		c0-10.9,8.9-19.8,19.8-19.8h540.3c10.9,0,19.8,8.9,19.8,19.8v365.8c0,10.9-8.9,19.8-19.8,19.8H172.3z"/>
	<path id="path7" inkscape:connector-curvature="0" d="M712.7,103.4c6.3,0,11.3,5.1,11.3,11.3v365.8c0,6.3-5.1,11.3-11.3,11.3H172.3
		c-6.3,0-11.3-5.1-11.3-11.3V114.7c0-6.3,5.1-11.3,11.3-11.3L712.7,103.4 M712.7,86.4H172.3c-15.6,0-28.3,12.7-28.3,28.3v365.8
		c0,15.6,12.7,28.3,28.3,28.3h540.3c15.6,0,28.3-12.7,28.3-28.3V114.7C741,99.1,728.3,86.4,712.7,86.4z"/>
</g>
</svg>
